<?xml version="1.0" encoding="UTF-8"?>
<svg id="visual" width="1920" height="1080" version="1.1" viewBox="0 0 1920 1080" xmlns="http://www.w3.org/2000/svg">
 <rect id="rect2" width="1920" height="1080" fill="#FCAF3C"/>
 <g id="g132" transform="translate(1920 1080)">
  <path id="path116" d="m-1026 0c11.5-52.8 23-105.6 33.4-157.2 10.3-51.7 19.5-102.2 28.2-156.1 8.8-54 17.1-111.5 56.5-149.3 39.3-37.8 109.6-55.9 162-79.3 52.3-23.5 86.7-52.2 115.2-88.8 28.4-36.7 50.8-81.2 78.2-129.8s59.7-101.2 107.6-112.7 111.5 18.2 159.4-5.6c47.8-23.8 80-101.1 125-134.6 45-33.4 102.7-23 160.5-12.6v1026z" fill="#ff9e36"/>
  <path id="path118" d="m-897.7 0c10-46.2 20.1-92.4 29.2-137.6 9-45.2 17-89.3 24.7-136.6 7.6-47.2 14.9-97.5 49.4-130.6 34.4-33.1 95.9-48.9 141.7-69.4s75.9-45.6 100.8-77.7 44.5-71 68.4-113.5c24-42.5 52.3-88.6 94.2-98.6 41.9-10.1 97.6 15.9 139.5-4.9 41.9-20.9 70-88.5 109.4-117.8 39.3-29.3 89.9-20.2 140.4-11v897.7z" fill="#ff783a"/>
  <path id="path120" d="m-769.5 0c8.6-39.6 17.3-79.2 25-117.9 7.8-38.7 14.7-76.6 21.2-117.1 6.6-40.5 12.8-83.6 42.3-112 29.5-28.3 82.3-41.9 121.6-59.5 39.2-17.5 65-39.1 86.3-66.6 21.4-27.4 38.2-60.8 58.7-97.3 20.5-36.4 44.8-75.9 80.7-84.5 36-8.6 83.6 13.7 119.6-4.2 35.9-17.8 60-75.8 93.7-100.9 33.8-25.1 77.1-17.3 120.4-9.5v769.5z" fill="#ff434e"/>
  <path id="path122" d="m-641.2 0c7.1-33 14.3-66 20.8-98.3 6.5-32.2 12.2-63.8 17.7-97.5 5.4-33.8 10.7-69.7 35.2-93.3 24.6-23.7 68.6-35 101.3-49.6 32.7-14.7 54.2-32.6 72-55.5 17.7-22.9 31.8-50.7 48.9-81.1s37.3-63.3 67.2-70.4c30-7.2 69.7 11.3 99.6-3.5 30-14.9 50.1-63.2 78.2-84.2 28.1-20.9 64.2-14.4 100.3-7.8v641.2z" fill="#ff006c"/>
  <path id="path124" d="m-513 0c5.8-26.4 11.5-52.8 16.7-78.6s9.7-51.1 14.1-78.1 8.6-55.7 28.2-74.6c19.7-18.9 54.9-28 81-39.7 26.2-11.7 43.4-26.1 57.6-44.4s25.5-40.5 39.1-64.8c13.7-24.3 29.9-50.7 53.8-56.4 24-5.7 55.8 9.1 79.7-2.8 24-11.9 40.1-50.6 62.5-67.3 22.5-16.7 51.4-11.5 80.3-6.3v513z" fill="#ff0092"/>
  <path id="path126" d="m-384.7 0c4.3-19.8 8.6-39.6 12.5-59 3.8-19.3 7.3-38.3 10.6-58.5 3.2-20.3 6.4-41.8 21.1-56 14.8-14.2 41.1-20.9 60.8-29.7 19.6-8.8 32.5-19.6 43.2-33.3 10.6-13.8 19-30.5 29.3-48.7s22.4-37.9 40.4-42.2c17.9-4.3 41.8 6.8 59.7-2.1 18-9 30-38 46.9-50.5 16.9-12.6 38.5-8.7 60.2-4.7v384.7z" fill="#e800bd"/>
  <path id="path128" d="m-256.5 0c2.9-13.2 5.8-26.4 8.3-39.3 2.6-12.9 4.9-25.5 7.1-39s4.3-27.9 14.1-37.4c9.8-9.4 27.4-13.9 40.5-19.8 13.1-5.8 21.7-13 28.8-22.2 7.1-9.1 12.7-20.3 19.6-32.4 6.8-12.2 14.9-25.3 26.9-28.2s27.8 4.6 39.8-1.4c12-5.9 20-25.3 31.3-33.6 11.2-8.4 25.7-5.8 40.1-3.2v256.5z" fill="#a400ea"/>
  <path id="path130" d="m-128.2 0c1.4-6.6 2.8-13.2 4.1-19.7 1.3-6.4 2.5-12.7 3.6-19.5 1-6.7 2.1-13.9 7-18.6 4.9-4.8 13.7-7 20.3-9.9 6.5-3 10.8-6.6 14.4-11.1 3.5-4.6 6.3-10.2 9.7-16.3 3.5-6 7.5-12.6 13.5-14 6-1.5 13.9 2.2 19.9-0.7 6-3 10-12.7 15.6-16.9 5.7-4.2 12.9-2.9 20.1-1.5v128.2z" fill="#60f"/>
 </g>
 <g id="g150" transform="translate(0)">
  <path id="path134" d="m1026 0c-28.2 48.7-56.5 97.5-56.1 153.6 0.4 56.2 29.4 119.7 5.9 163.5-23.5 43.7-99.5 67.5-127.6 115.1-28 47.6-8.1 118.9-31.9 160.9-23.8 41.9-91.5 54.5-131.8 91.4-40.4 36.9-53.4 98.1-89.7 134.2-36.2 36.1-95.6 47-153.5 47.4-58 0.3-114.5-9.9-164.1-13s-92.2 0.9-137.2 30.9-92.5 86-140 142v-1026z" fill="#ff9e36"/>
  <path id="path136" d="m897.8 0c-24.8 42.6-49.5 85.3-49.1 134.4 0.3 49.1 25.7 104.8 5.1 143-20.6 38.3-87.1 59.1-111.6 100.8-24.5 41.6-7.1 104-27.9 140.7-20.9 36.7-80.1 47.7-115.4 80s-46.7 85.9-78.4 117.5-83.7 41.1-134.4 41.4-100.2-8.6-143.6-11.3c-43.3-2.8-80.6 0.7-120 27-39.4 26.2-80.9 75.2-122.5 124.3v-897.8z" fill="#ff783a"/>
  <path id="path138" d="m769.5 0c-21.2 36.5-42.4 73.1-42.1 115.2s22.1 89.8 4.4 122.6c-17.6 32.8-74.6 50.7-95.6 86.3-21 35.7-6.1 89.2-24 120.7s-68.6 40.9-98.8 68.6c-30.3 27.6-40.1 73.6-67.3 100.6-27.1 27.1-71.7 35.3-115.1 35.5-43.5 0.3-85.9-7.3-123.1-9.7-37.2-2.3-69.1 0.7-102.9 23.2s-69.4 64.5-105 106.5v-769.5z" fill="#ff434e"/>
  <path id="path140" d="m641.3 0c-17.7 30.5-35.3 60.9-35.1 96s18.4 74.8 3.7 102.2c-14.7 27.3-62.2 42.2-79.8 71.9-17.5 29.8-5 74.4-19.9 100.6s-57.2 34-82.4 57.1-33.4 61.4-56 83.9c-22.7 22.6-59.8 29.4-96 29.6s-71.6-6.2-102.6-8.1c-30.9-2-57.5 0.5-85.7 19.3-28.1 18.7-57.8 53.7-87.5 88.8v-641.3z" fill="#ff006c"/>
  <path id="path142" d="m513 0c-14.1 24.4-28.2 48.7-28 76.8 0.1 28.1 14.6 59.9 2.9 81.7-11.8 21.9-49.8 33.8-63.8 57.6s-4 59.5-16 80.4c-11.9 21-45.7 27.3-65.9 45.7-20.1 18.5-26.7 49.1-44.8 67.2-18.1 18-47.8 23.5-76.8 23.6-28.9 0.2-57.2-4.9-82-6.5-24.8-1.5-46.1 0.5-68.6 15.5s-46.3 43-70 71v-513z" fill="#ff0092"/>
  <path id="path144" d="m384.8 0c-10.6 18.3-21.2 36.5-21.1 57.6 0.2 21.1 11 44.9 2.2 61.3s-37.3 25.3-47.8 43.2c-10.5 17.8-3 44.6-12 60.3-8.9 15.7-34.3 20.4-49.4 34.3-15.2 13.8-20.1 36.8-33.6 50.3-13.6 13.6-35.9 17.6-57.6 17.8-21.8 0.1-43-3.7-61.6-4.9-18.5-1.2-34.5 0.3-51.4 11.6-16.9 11.2-34.7 32.2-52.5 53.3v-384.8z" fill="#e800bd"/>
  <path id="path146" d="m256.5 0c-7.1 12.2-14.1 24.4-14 38.4s7.3 29.9 1.4 40.9c-5.8 10.9-24.8 16.9-31.8 28.7-7 11.9-2.1 29.8-8 40.3-6 10.5-22.9 13.6-33 22.8s-13.3 24.6-22.4 33.6c-9 9-23.9 11.7-38.4 11.8s-28.6-2.4-41-3.2-23 0.2-34.3 7.7-23.1 21.5-35 35.5v-256.5z" fill="#a400ea"/>
  <path id="path148" d="m128.3 0c-3.6 6.1-7.1 12.2-7.1 19.2 0.1 7 3.7 15 0.8 20.4-3 5.5-12.5 8.5-16 14.4-3.5 6-1 14.9-4 20.1-2.9 5.3-11.4 6.8-16.4 11.5-5.1 4.6-6.7 12.2-11.2 16.7-4.6 4.6-12 5.9-19.2 6-7.3 0-14.4-1.3-20.6-1.7-6.1-0.4-11.5 0.1-17.1 3.9-5.6 3.7-11.6 10.7-17.5 17.8v-128.3z" fill="#60f"/>
 </g>
 <rect id="rect434" width="1920" height="1080" fill-opacity=".9" stroke-linecap="round" stroke-linejoin="round" stroke-width="3.7795"/>
</svg>
