<?xml version="1.0" encoding="UTF-8" standalone="no"?>
<svg
   xmlns:dc="http://purl.org/dc/elements/1.1/"
   xmlns:cc="http://creativecommons.org/ns#"
   xmlns:rdf="http://www.w3.org/1999/02/22-rdf-syntax-ns#"
   xmlns:svg="http://www.w3.org/2000/svg"
   xmlns="http://www.w3.org/2000/svg"
   xmlns:xlink="http://www.w3.org/1999/xlink"
   xmlns:sodipodi="http://sodipodi.sourceforge.net/DTD/sodipodi-0.dtd"
   xmlns:inkscape="http://www.inkscape.org/namespaces/inkscape"
   inkscape:version="1.0 (4035a4fb49, 2020-05-01)"
   sodipodi:docname="default.svg"
   id="svg2"
   height="450"
   width="600"
   version="1.0">
  <sodipodi:namedview
     inkscape:current-layer="svg2"
     inkscape:window-maximized="1"
     inkscape:window-y="0"
     inkscape:window-x="0"
     inkscape:cy="212.67756"
     inkscape:cx="243.14383"
     inkscape:zoom="2.6088889"
     showgrid="false"
     id="namedview27"
     inkscape:window-height="739"
     inkscape:window-width="1366"
     inkscape:pageshadow="2"
     inkscape:pageopacity="0"
     guidetolerance="10"
     gridtolerance="10"
     objecttolerance="10"
     borderopacity="1"
     bordercolor="#666666"
     pagecolor="#ffffff"
     inkscape:document-rotation="0" />
  <defs
     id="defs4">
    <linearGradient
       id="linearGradient879"
       inkscape:collect="always">
      <stop
         id="stop875"
         offset="0"
         style="stop-color:#000000;stop-opacity:1;" />
      <stop
         id="stop877"
         offset="1"
         style="stop-color:#000000;stop-opacity:0;" />
    </linearGradient>
    <linearGradient
       id="linearGradient969"
       inkscape:collect="always">
      <stop
         id="stop965"
         offset="0"
         style="stop-color:#fffffb;stop-opacity:1" />
      <stop
         id="stop967"
         offset="1"
         style="stop-color:#000000;stop-opacity:1" />
    </linearGradient>
    <linearGradient
       id="linearGradient4135">
      <stop
         id="stop4137"
         offset="0"
         style="stop-color:white;stop-opacity:1" />
      <stop
         id="stop4139"
         offset="1"
         style="stop-color:#e3e936;stop-opacity:0" />
    </linearGradient>
    <linearGradient
       id="linearGradient4123">
      <stop
         id="stop4125"
         offset="0"
         style="stop-color:#ffc378;stop-opacity:1" />
      <stop
         id="stop4127"
         offset="1"
         style="stop-color:#ffc378;stop-opacity:0" />
    </linearGradient>
    <linearGradient
       id="linearGradient3127">
      <stop
         id="stop3129"
         offset="0"
         style="stop-color:black;stop-opacity:1" />
      <stop
         id="stop3131"
         offset="1"
         style="stop-color:#ff8d00;stop-opacity:0" />
    </linearGradient>
    <linearGradient
       gradientUnits="userSpaceOnUse"
       xlink:href="#linearGradient3127"
       id="linearGradient3133"
       y2="430.89001"
       x2="322"
       y1="547.46997"
       x1="322" />
    <linearGradient
       gradientTransform="matrix(1,0,0,-1,0,1092.641)"
       gradientUnits="userSpaceOnUse"
       xlink:href="#linearGradient3127"
       id="linearGradient4114"
       y2="440.91"
       x2="322"
       y1="580.64001"
       x1="322" />
    <linearGradient
       gradientTransform="matrix(1.151324,0,0,1.3242958,-165.942,-459.97945)"
       gradientUnits="userSpaceOnUse"
       xlink:href="#linearGradient4123"
       id="linearGradient4129"
       y2="604.27002"
       x2="257.72"
       y1="749.53003"
       x1="257.72" />
    <radialGradient
       gradientUnits="userSpaceOnUse"
       xlink:href="#linearGradient4135"
       id="radialGradient4141"
       fy="230"
       fx="404"
       r="154"
       cy="230"
       cx="404" />
    <radialGradient
       gradientTransform="matrix(1.571429,0,0,1.571429,-221.85715,-141.4286)"
       r="154"
       fy="230"
       fx="404"
       cy="230"
       cx="404"
       gradientUnits="userSpaceOnUse"
       id="radialGradient919"
       xlink:href="#linearGradient4135"
       inkscape:collect="always" />
    <linearGradient
       gradientTransform="translate(0,0.09797111)"
       gradientUnits="userSpaceOnUse"
       y2="353.53821"
       x2="314.09616"
       y1="270.22345"
       x1="314.09616"
       id="linearGradient971"
       xlink:href="#linearGradient969"
       inkscape:collect="always" />
    <mask
       id="mask980"
       maskUnits="userSpaceOnUse">
      <rect
         style="opacity:1;fill:url(#linearGradient984);fill-opacity:1;stroke-width:0.01;stroke-miterlimit:4;stroke-dasharray:none"
         id="rect982"
         width="791.35559"
         height="111.20895"
         x="-2.91763"
         y="255.1207" />
    </mask>
    <linearGradient
       y2="353.53821"
       x2="314.09616"
       y1="253.42938"
       x1="313.70602"
       gradientTransform="translate(71.120517,0.81533554)"
       gradientUnits="userSpaceOnUse"
       id="linearGradient984"
       xlink:href="#linearGradient969"
       inkscape:collect="always" />
    <mask
       maskUnits="userSpaceOnUse"
       id="mask980-0">
      <rect
         y="255.1207"
         x="-2.91763"
         height="111.20895"
         width="791.35559"
         id="rect982-5"
         style="opacity:1;fill:url(#linearGradient984);fill-opacity:1;stroke-width:0.01;stroke-miterlimit:4;stroke-dasharray:none" />
    </mask>
    <linearGradient
       gradientTransform="matrix(1,0,0,-1,-1043.7875,508.29268)"
       gradientUnits="userSpaceOnUse"
       y2="159.34694"
       x2="1335.3168"
       y1="253.02071"
       x1="1335.3168"
       id="linearGradient881"
       xlink:href="#linearGradient879"
       inkscape:collect="always" />
  </defs>
  <metadata
     id="metadata24">
    <rdf:RDF>
      <cc:Work>
        <dc:format>image/svg+xml</dc:format>
        <dc:type
           rdf:resource="http://purl.org/dc/dcmitype/StillImage" />
        <cc:license
           rdf:resource="http://creativecommons.org/licenses/publicdomain/" />
        <dc:publisher>
          <cc:Agent
             rdf:about="http://openclipart.org/">
            <dc:title>Open Clip Art Library</dc:title>
          </cc:Agent>
        </dc:publisher>
        <dc:title />
        <dc:date>2006-08-30T19:53:29</dc:date>
        <dc:description>small colour remix of rejons houses on the horizon tracing.  Looks a little better with blur filters applied but they were removed for compatibility.</dc:description>
        <dc:source>http://openclipart.org/detail/76/houses-on-the-horizon---starburst-remix-by-andy</dc:source>
        <dc:creator>
          <cc:Agent>
            <dc:title>Andy</dc:title>
          </cc:Agent>
        </dc:creator>
        <dc:subject>
          <rdf:Bag>
            <rdf:li>building</rdf:li>
            <rdf:li>cityscape</rdf:li>
            <rdf:li>clip art</rdf:li>
            <rdf:li>clipart</rdf:li>
            <rdf:li>colour</rdf:li>
            <rdf:li>flare</rdf:li>
            <rdf:li>horizon</rdf:li>
            <rdf:li>house</rdf:li>
            <rdf:li>landscape</rdf:li>
            <rdf:li>no contour</rdf:li>
            <rdf:li>orange</rdf:li>
            <rdf:li>remix</rdf:li>
            <rdf:li>remix problem</rdf:li>
            <rdf:li>river</rdf:li>
            <rdf:li>starburst</rdf:li>
            <rdf:li>traced</rdf:li>
            <rdf:li>yellow</rdf:li>
          </rdf:Bag>
        </dc:subject>
      </cc:Work>
      <cc:License
         rdf:about="http://creativecommons.org/licenses/publicdomain/">
        <cc:permits
           rdf:resource="http://creativecommons.org/ns#Reproduction" />
        <cc:permits
           rdf:resource="http://creativecommons.org/ns#Distribution" />
        <cc:permits
           rdf:resource="http://creativecommons.org/ns#DerivativeWorks" />
      </cc:License>
    </rdf:RDF>
  </metadata>
  <rect
     width="650"
     height="300"
     rx="0"
     ry="0"
     x="0"
     y="-495.42801"
     transform="scale(1,-1)"
     style="fill:#c48a20;fill-opacity:1;stroke-width:1.12989"
     id="rect3163" />
  <rect
     width="650"
     height="300"
     rx="0"
     ry="0"
     x="0"
     y="-45"
     style="fill:#abb400;stroke-width:1.13148"
     id="rect2184" />
  <path
     d="m -2.459297,522.4378 c -28.944378,0 -54.12154,-17.89112 -67.669474,-44.60888 L 410.08583,222.4378 l -369.86562,300 z m 412.545127,-300 -217.38702,300 h -95.5258 z m 0,0 -120.57428,300 h -63.31728 z m 0,0 -45.12468,300 h -50.76381 z m 0,0 23.66794,300 h -47.34758 z m 0,0 95.87679,300 h -50.76381 z m 0,0 174.56712,284.7648 c -12.47159,9.63266 -27.47025,15.2352 -43.68565,15.2352 h -10.3189 z m 0,0 209.17402,200.55497 v 9.39482 c 0,21.06237 -6.23579,40.39376 -16.69508,55.69503 z m 0,0 209.17402,111.24471 v 58.43024 z m 0,0 208.46036,41.46406 c 0.46797,4.0037 0.71366,8.07347 0.71366,12.2093 v 34.80444 z m 0,0 -490.755783,51.28171 z m 0,0 -490.82598,207.58457 V 320.07258 Z"
     style="fill:url(#linearGradient4129);fill-opacity:1;stroke-width:1.24335"
     id="path3169" />
  <path
     d="m -3.719147,-50 c -28.944378,0 -54.121541,15.94516 -67.669475,39.786298 L 408.82598,217.55578 38.96036,-50 Z M 408.82598,217.55578 191.43896,-50 H 95.91315 Z m 0,0 L 288.2517,-50 h -63.31729 z m 0,0 L 363.70129,-50 h -50.7638 z m 0,0 L 432.49392,-50 h -47.34758 z m 0,0 L 504.70277,-50 h -50.76381 z m 0,0 L 583.3931,-36.423633 C 570.92151,-45.014928 555.92285,-50 539.70745,-50 h -10.3189 z m 0,0 L 618,38.694217 v -8.379164 c 0,-18.785355 -6.2358,-36.0386545 -16.69508,-49.685732 z m 0,0 L 618,118.33752 V 66.224073 Z m 0,0 208.46036,-36.98146 C 617.75431,177.00346 618,173.38545 618,169.68495 v -31.0418 z m 0,0 -490.755784,-45.72596 C -80.830057,215.31662 -46.38695,250 -3.719147,250 H 60.54579 Z m 0,0 L -82,32.412791 V 130.4879 Z"
     style="fill:#e3e936;stroke-width:1.17421"
     id="path2158" />
  <path
     d="m 655.00023,220.00007 c 0,133.65294 -108.34712,242.00007 -242.00006,242.00007 -133.65295,0 -242.00007,-108.34713 -242.00007,-242.00007 0,-133.652944 108.34712,-242.000066 242.00007,-242.000066 133.65294,0 242.00006,108.347122 242.00006,242.000066 z"
     style="fill:url(#radialGradient919);fill-opacity:1;stroke-width:1.57143"
     id="path4133" />
  <path
     sodipodi:nodetypes="ccccccccccccccccccccccccccccccccccccccccccccccccccccccccccccccccccccccccccccccccccccccccccccccccccccccccccccccccccccccccccccccccccccccccccccccccccccccccccccccccccccccccccccccccccccccccccccccccccccccccccccccccccccccccccccccccccccccccccccccccccccccccccccccccccccccccccccccccccccccccccccccccccccccccccccccccccccccccccccccccccccccccccccccccccccccccccccccccccccccccccccccccccccccccccccccccccccccccccccccccccccccccccccccccccccccccccccccccccccccccccccccccccccccccccccccccccccccccccccccccccccccccccccccccccc"
     d="m 102.30985,162.9478 c 0.03,1.18 -0.43,1.75 -1.28,2.32 -0.15,1.72 -1.35,-1.18 -2.37,0.15 -1.73,1.58 0.3,4.56 -1.57,5.85 0.12,1.17 0.13,1.35 -0.81,0.37 -1.84,-0.88 -1.38,1.93 -0.78,2.66 -0.68,0.65 -0.94,0.97 -1.69,0.06 -2.36,-0.21 -0.36,3.49 -0.84,4.72 -0.98,-0.52 -3.81,-0.77 -2.63,1.06 0.39,1.2 1.22,4.47 -0.68,2.72 -1.21,-0.98 -4.85,0.69 -3,1.87 1.92,0.2 2.45,3.8 0.34,3.94 -0.45,0.91 -0.12,2.26 -1.47,2.63 -1.32,0.21 -3.12,0.64 -2.37,2.47 -0.18,0.96 1.58,1.99 1.12,2.5 -2.76,0.39 -5.53,-1.15 -8.37,-1 -2.48,-0.03 -4.56,-0.82 -6.66,-1.63 -1.6,0.2 -1.07,-1.38 0.25,-1.19 1.62,-1.08 -0.55,-2.66 -1.84,-2.12 -1.19,0.21 -3.21,-0.82 -1.91,-2.06 0.64,-1.12 -0.96,-3.21 0.97,-3 1.75,-0.26 1.17,-2.73 -0.63,-2 -1.4,0.3 -1.91,-0.59 -2.12,-1.66 -0.57,-0.74 -1.97,0.28 -1.19,-1.28 0.53,-1.19 -0.18,-2.36 -0.94,-2.75 -0.08,-1.88 -0.55,-4.56 -2.5,-4.94 -1.3,-1.21 0.66,-2.35 -0.25,-3.72 -0.74,-1.58 -1.53,-4.57 -3.62,-4.5 -0.89,1.02 -1.06,1.25 -1.75,0 -1.1,-1.29 -2.24,0.59 -1.63,1.53 -1.33,-0.11 -3.09,-0.3 -4.15,0.13 -0.52,-1.34 -1.94,-1.45 -2.69,-0.41 -2.35,-0.11 -0.58,3.7 -2,4.75 -0.55,1.31 -0.55,2.94 -0.31,4.25 -1.54,-1.83 -2.53,1.33 -2.35,2.59 0.45,2.3 -2.2,3.18 -2.22,5.13 0.1,0.63 -1.27,1.3 -0.53,2.31 0.1,1.32 -0.1,3.78 -2.03,2.66 -1.45,-0.93 -4.74,0.72 -4.69,-1.78 -0.86,-1.53 -1.78,-3.94 -3.62,-4.31 -0.82,0.84 0.1,2.5 -1.56,2.37 -1.56,0.61 -2.37,2.31 -3.1,3.41 -1.31,0.14 -0.4,1.92 -2.09,1.97 -1.31,0.93 -3.39,0.95 -3.44,-1.04 -0.03,-1.26 -1.76,-1.43 -2.06,-1.9 0.78,-0.72 1.78,-2.56 -0.13,-2.28 -0.78,0.08 -3.35,0.62 -1.43,-0.03 1.11,-0.86 -1.74,-0.84 -0.53,-1.94 1.25,-1.59 -1.02,-2.03 -1.6,-2.75 0.82,-1.05 -0.08,-2.27 -1.06,-1.85 -0.32,-1.61 -2.59,0.58 -3.19,-1.18 -0.93,-0.78 -0.96,-4.25 -2.62,-2.6 -0.94,1.05 -2.1606229,3.48576 -3.4706229,3.72576 -1.85999997,-1.64 -2.69,1.37 -2.28,2.84 -0.16,1.99 -0.3726707,3.63383 -1.2026707,5.47383 -0.81,23.92 -0.4941303,47.79753 -0.6541303,71.72753 L 600.90985,257.1678 v -65.5 c -1.1,0.16 0.52,-1.67 -0.07,-2.59 -0.51,-2.52 1.08,-6.31 -2.19,-7.22 -3.86,-2.32 -7.62,-4.93 -11.53,-7.09 -14.25,1.07 -28.58,1.31 -42.78,2.87 -4.82,1.15 -9.22,4.57 -14.46,3.33 -3.51,0.03 -7.79,-2.08 -10.91,0.01 -0.8,0.88 0.24,1.99 -1.16,2.25 -1.77,1.63 -2.95,4.23 -5.34,1.49 -3.18,-1.45 -5.95,-4.77 -9.74,-3.56 -11.03,0.64 -22.1,1.94 -33.14,1.26 -5.97,-0.45 -12.18,-2.05 -17.93,-2.34 -1.22,1.4 -2.82,3.26 -3.13,4.84 -4.36,4.06 -8.57,9.17 -11.75,14.22 -2.14,-0.6 -3.47,3.8 -0.62,3.38 1.64,0.36 0.52,3.14 0.56,4.37 -0.21,3.01 -2.83,5.56 -2.78,8.47 1.03,0.36 2.33,0.64 2.53,2.06 0.69,1.77 0.93,4.25 0,5.88 -1.38,-1.29 -3.32,1 -1.81,2.03 -1.05,0.87 -0.48,-1.96 -1.32,-2.47 -0.64,-1.46 -1.8,-0.56 -2.37,0.31 -0.96,0.49 0.76,-1.67 -1.5,-1.13 -1.37,-0.18 -3.68,-0.1 -4.53,-0.87 0.97,-0.38 2.76,1.04 2.81,-0.75 1.42,-1.29 -0.84,-3.64 -1.53,-1.65 0.28,1.19 -2.23,0.43 -1.41,-0.82 0.16,-3.1 -0.04,-7.21 0.35,-9.75 1.19,0.75 4.95,0.07 3.34,-1.78 -1.11,-0.65 -2.7,0.08 -3.47,0.97 -1.01,-3.58 1.6,-2.54 3.97,-2.59 1.85,0.12 1.21,-2.13 -0.34,-1.85 -1.35,-0.44 -4.22,0.74 -3.6,-1.65 -0.85,-2.84 3.9,0.24 3.53,-2.38 -2.76,-2.18 -6.93,-1.02 -10.15,-0.69 1.38,0.98 5.51,1.19 4.81,3.63 -0.74,0.82 -3.73,0.28 -2.63,1.84 2.6,0.18 2.09,3.12 2.13,5 -0.7,2.37 1.64,6.9 -1.63,7.44 -1.12,-0.05 -2.9,3.01 -2.5,0.63 -0.01,-1.66 1.57,-2.75 0.85,-4.66 -1.62,-1.92 -0.17,-5.14 -1.6,-7.28 -1.9,0.37 -0.83,3.54 -1.3,5 -0.25,3.51 0.26,7.44 -1.41,10.56 0.64,0.74 -0.85,2.78 -1.19,0.94 -1.31,-8.76 0.24,-18 -1.19,-26.78 -1.42,-1.13 -1.41,1.32 -2.06,1.75 -1.33,0.08 -0.91,1.08 -0.06,1.53 0.78,7.3 0.54,14.75 0.21,22.09 -0.04,1.27 -2.33,0.39 -2.21,2 -0.53,1.15 0.57,3.21 -1.1,3.25 -1.07,0.53 -1,2.55 -2.29,0.88 -1.15,-0.74 -2.75,-1.6 -2.4,-3.07 -1.28,-0.04 -0.71,-1.29 -0.93,-2.5 0,-1.97 -1.5,-7.18 -1.68,-2.65 -0.3,1.5 0.4,4.12 -0.45,5.19 -1.49,-0.73 -3.41,0.13 -4.37,0.62 -0.3,-1.26 -1.46,-0.69 -1.97,0 -2.13,0.86 -3.64,-1.93 -2.25,-3.31 1.43,0.34 2.72,-1.18 0.87,-1.53 -1.55,-1.8 -0.48,-5.06 -0.84,-7.32 -0.12,-8.53 0.89,-17.18 0.03,-25.65 -0.57,-1.52 -2.32,-0.37 -1.97,1 -0.57,9.04 0.01,18.32 -1.5,27.22 -1.26,0.02 -1.1,1.66 -2.44,1.53 -0.87,0.53 -0.55,2.36 -1.4,0.81 -1.5,-1.16 -2.85,1.59 -3.1,2.81 0.91,2.23 4.57,0.24 5.94,1.47 0.63,3.36 -2.07,2.5 -4.37,2.15 -2.02,0.18 -4.2,-0.83 -3.85,-3.12 -0.5,-5.71 0.61,-11.8 -0.81,-17.31 -1.74,-0.67 -1.22,2.77 -1.45,3.87 -0.38,5.27 0.34,10.73 -0.64,15.88 -5.36,0.06 -10.9,-0.02 -16.16,-0.94 -0.78,-0.61 -0.72,-3.41 -1.94,-1.97 -0.03,0.97 0.11,3.02 -1.4,1.94 -1.28,-0.73 -3.29,-1.81 -4.13,0.06 -1.64,1.68 -1.52,-1.4 -1.37,-2 1.32,1.71 3.78,-2.08 1.22,-1.87 -0.9,0.03 -1.62,2.08 -1.35,0.09 0.36,-5.31 -0.71,-10.94 0.78,-16.06 0.56,-1.11 4.09,-4 1.47,-3.41 -1.05,0.85 -2.15,2.4 -3.44,1.32 -1.7,1.32 -0.59,4.65 -0.96,6.68 -0.3,3.66 0.61,7.92 -1.13,11.22 -1.13,0.39 -3.12,1.64 -2.46,-0.53 0.47,-1.07 -0.47,-3.95 -1.48,-2 -0.04,0.95 -1.44,2.79 -1.34,0.81 -0.22,-1.53 2.57,-2.28 1.03,-3.75 -0.85,-0.86 -2.22,-1.64 -0.84,-2.65 0.8,-1.74 -1.02,-3.11 -2.38,-3.22 0.05,-1.01 0.29,-4.32 -1.5,-3.22 -0.87,1.44 -2.96,-1.42 -3.31,0.59 0.23,0.99 0.88,2.97 -0.91,1.97 -2.21,-0.32 1.01,-1.27 0.44,-2.62 0.34,-1.21 -1.08,-1.28 -1.34,-1.72 -0.15,-1.95 -0.44,-5.18 -2.47,-5.84 -0.71,0.55 -0.14,3.09 -0.85,1.09 0.12,-1.94 -1.97,-4.26 -3.78,-2.66 -0.63,0.85 0.55,2.16 -0.62,2.63 -0.97,2.71 1.96,4.42 2,6.87 -1.26,0.95 -5.47,1.1 -4.35,3.5 0.47,0.81 1.42,2.96 0.69,3.32 -2.62,-0.89 -1.45,3.54 0.47,3.4 1,1.61 -1.53,1.95 -1.53,3.6 -0.88,-1.51 -1.71,0.02 -1.66,1.18 -0.57,-0.87 -1.71,-0.7 -0.5,-1.43 0.52,-2.07 -2.57,-1.25 -3.53,-1.57 -0.44,-1.26 -2.55,-0.45 -1.75,-2.4 -0.12,-3.2 1.44,-6.65 0.53,-9.69 -1.63,-1.13 -1.55,2.26 -1.78,3.28 -0.65,2.88 0.2,6.86 -2.15,8.97 -1.23,0.55 -3.28,0.4 -2.54,-1.44 0.3,-1.08 2.06,-1.54 0.91,-2.87 -1.67,-2.86 -0.46,-6.57 -1.56,-9.63 -1.25,3.11 -0.81,6.88 -2.56,9.72 -0.15,1.12 2.05,3.24 -0.38,3.09 -2.53,0.62 -5.65,-0.99 -4.81,-3.96 -0.16,-1.74 1.53,-2.7 3.06,-2.66 0.48,-2.04 -3.06,-0.25 -2.47,-2.41 -0.6,-2.04 3.55,-0.43 2.22,-2.25 -0.98,-0.7 -3.26,-1.77 -3.78,-0.15 -0.71,-0.64 -2.02,-1.05 -2.81,-0.28 -0.31,-1.32 0.82,-4.26 -0.94,-4.57 -1.76,2.49 0.08,6.26 -1.59,8.69 -1.09,-0.37 -2.45,-0.06 -2.6,1.22 -0.71,-4.15 -1.31,-0.43 -2.78,1.19 -1.21,1.25 -1.44,0.04 -0.91,-1.16 0.47,-1.72 -1.93,-1.94 -1.96,-0.28 0.3,1.63 -0.72,1.14 -1.75,1.25 -1.18,0.07 -0.97,2.65 -1.82,1 -1.13,-0.44 -0.74,1.16 -1.87,0.97 -1.56,0.52 -2.18,3.72 -3.66,1.25 -1.55,-2.54 -2.73,-1.68 -4,0.34 -1.11,1.05 -3.82,1.54 -3.47,-0.78 -0.21,-1.8 -0.42,-4.75 -2.47,-5.19 -0.47,0.94 -0.62,1.31 -1.37,0.03 -0.7,-1.18 -1.45,-4.39 -3.34,-2.9 -0.68,0.47 -1.54,2.99 -1.79,0.94 0.38,-1.34 -0.86,-3.76 -2.25,-2.29 -0.47,1.5 -2.08,0.72 -1.68,-0.68 0.04,-1.65 -1.88,-2.04 -1.75,-3.75 -0.05,-1.69 -1.9,-1.22 -2.22,0 0.08,-1.92 -0.32,-5.84 -3.16,-4.6 -1.5,0.33 -2.3,2.15 -2.81,3.03 -1.07,-0.64 -1.45,1.36 -2.25,-0.28 -1.9,-1.63 -2.66,1.88 -3.03,3.16 -0.1,1.06 0.35,1.51 -0.97,1.53 -0.21,-0.2 -0.32,-1.45 -0.91,-1.53 1.06,-0.93 0.6,-3.42 -0.93,-2.31 -0.56,0.91 -2.63,2.11 -2.66,0.25 0.08,-1.05 -1.17,-1.45 -1.84,-0.94 0.74,-0.73 1.64,-2.12 -0.1,-2.22 -2.51,0.45 0.15,-2.44 0.06,-3.62 0.34,-1.77 1.72,-7.14 -0.6,-3.4 -0.23,0.44 -2.57,2.89 -1.3,1.33 1.32,-1.08 0.07,-4.05 -1.41,-2.37 -0.59,0.85 -1.06,3.61 -1.53,1.22 0.63,-1.04 -0.13,-1.74 -0.94,-1.72 -0.82,-1.8 -0.57,-5.99 -1.67,-6.13 -0.76,1.77 -0.87,4.57 -0.67,6.07 -0.43,-0.77 -1.39,-1.6 -1.94,-0.22 -0.5,0.77 -1.02,1.02 -0.97,-0.03 -0.4,-1.4 -2.66,-1.92 -2.31,0.06 0.01,2.1 -2.1,0.48 -2.84,-0.19 -2,-0.03 -0.53,3.81 -0.91,3.84 -1.13,-1.42 -2.59,0.07 -1.66,1.41 0.72,1.68 1.91,3.31 1.91,5.03 1.15,0.6 -0.32,2.47 1.28,2.1 1.12,-0.71 1.28,3.34 -0.31,1.87 -0.52,-0.93 -2.34,-2.57 -3.22,-1.06 -0.54,1.28 2.85,2.9 0.13,2.62 -4.72,0.19 -9.93,-1.69 -14.38,0.07 -1.03,0.71 -1,2.18 -0.72,3.31 -1.18,-0.56 -1.43,0.36 -1.56,-1.31 -0.87,-2 -1.58,0.53 -2.28,1.18 -1.09,0.49 -0.38,1.56 0.53,1.57 0.86,1.55 -0.97,1.84 -0.53,3.56 0.18,1.35 0.11,2.98 -1.63,2.72 -0.83,-0.03 -1.21,2.08 -1.75,0.68 -0.31,-5.58 0.9,-11.21 0.88,-16.75 -1.57,-1.78 -1.73,2.11 -1.81,3.13 -0.69,5.07 -0.67,10.4 -1.16,15.37 -1.05,0.98 -3.14,1.3 -3.5,2.63 -1.11,-0.71 -1.43,-4.37 -3.06,-3.13 -0.78,0.44 -2.61,-1.5 -2.91,0.41 -0.89,0.54 -0.84,-1.5 -1.66,-1.62 1.06,-0.59 0.62,-2.14 1.88,-2.6 0.29,-2.02 -1.42,-4.12 0,-6.03 -0.14,-1.43 -1.62,-2.38 -1.44,-4.09 0.35,-1.79 -0.74,-2.93 -2.28,-2.41 -1.38,-1.47 2.77,-2.45 0.84,-3.91 -1.59,0.16 -4.36,0.65 -5.15,-1.25 0.58,-0.86 1.74,-1.99 0.5,-2.9 -0.53,-1.77 -0.26,-3.94 -0.91,-5.53 1.1,-0.66 2.44,-3.35 0.13,-3 -2.12,0.14 -3.11,-1.77 -3.63,-3.44 -0.31,-0.81 -2.86,-1.89 -0.84,-1.78 1.17,1.48 4.84,0.39 3.62,-1.56 -3.42,-1.92 -6.69,1.27 -8.84,3.62 -0.11,-4.51 1.26,-9.37 0.12,-13.72 -2.05,-1.22 -2.32,2.43 -2.57,3.75 -0.41,3.73 -1.28,7.4 -2.55,10.78 0.84,0.7 1.47,2.9 0.34,3.57 -0.91,-0.18 -3.66,0.1 -2.12,1.34 2.05,0.36 2.16,2.07 1.53,3.83 -1.26,3.19 -1.17,6.63 -1.57,10.03 0.09,2.03 -2.83,3.96 -0.99,5.8 -2.57,0.28 -5.46,0.53 -4.35,-2.91 -0.4,-1.93 1.82,-3.14 0.72,-5 -0.67,-1.22 0.75,-4.54 -1.22,-4.25 -0.53,0.33 -1.72,2.48 -1.18,0.66 0.57,-1.85 -1.19,-3.03 -0.66,-4.97 0.33,-1.28 -0.21,-3.12 -0.84,-3.63 0.77,-0.96 -0.18,-1.7 0.56,-2.75 0.08,-1.83 -2.36,-1.52 -3.06,-2.97 -0.99,-0.75 -1.51,0.45 -2.41,-0.15 -1.74,0.68 -1.38,3.19 -1.56,4.22 -1.05,-0.65 -2.84,-0.03 -2.03,1.4 -1.7,0.42 -0.36,2.52 -0.13,3.56 -0.97,-1.54 -2.91,-1.2 -4.28,-1.56 -0.53,-1.18 -2,0.81 -1.5,-0.9 0.6,-1.32 -1.04,-1.46 -1.34,-1.54 -0.42,-2.04 -3.41,0.68 -4.19,-1.09 -2.44,-0.42 -3.69,3.51 -6.19,3.13 -0.72,-1.11 -2.29,-1.16 -3.25,-1.97 -1.68,0.23 -2.61,2.26 -4.28,2.03 -0.61,0.98 -0.98,3.22 -2.25,1.72 -0.91,-0.2 1.26,-1.59 0.5,-2.69 -0.5,-1.8 -3.14,-2.62 -2.25,-4.72 -0.74,-1.33 -3.86,0.77 -2.38,-1 0.65,-1.33 0.91,-3.73 -0.71,-4.37 1.95,-2.33 -0.37,-4.84 -1.88,-6.54 0.15,-1.45 -1.32,-1.66 -2.12,-2.28 -0.2,-0.49 -0.8,-2.84 -1.35,-1.25 z m 61.28,17.6 c 1.21,0.73 -1.02,1.79 -0.25,0.56 0.09,0.11 0.08,-0.79 0.25,-0.56 z m 289.41,2.31 c 0.42,0.02 0.41,-1.09 0,0 z m 0.34,0.25 c 0.24,0.32 0.66,-1.26 0,0 z m -0.4,-0.06 v -0.03 z m 1.72,1.31 c 1.34,1.41 0.82,1.16 0.81,0.16 -0.16,0.77 -0.86,-0.56 -0.81,-0.16 z m -1.1,0.94 c 0.39,0.45 0.68,-0.58 0,0 z m 2.16,0.37 c 0.23,0.31 0.91,-0.93 0,0 z m -2.16,-0.09 c 1.32,0.39 -0.15,-0.51 0,0 z m -0.06,0.12 c 1.1,0.69 0.13,-0.45 0,0 z m -0.06,0.16 c 1.13,0.89 -0.02,-0.36 0,0 z m 2.15,0.12 c 0.04,-0.35 -1.26,-0.06 0,0 z m 0.38,0.1 c -0.04,0.39 1.15,-0.92 0,0 z m -2.69,0.03 c 0.98,0.96 0.13,-0.39 0,0 z m 2.84,0.31 c 0.23,0.3 1.01,-0.77 0,0 z m -3,-0.12 c 0.26,1.48 0.74,-0.62 0,0 z m 0.1,0.59 c -0.09,-0.52 -0.81,-0.49 0,0 z m -2.66,-0.34 0.03,-0.03 z m 5.66,0.09 c 0.51,1.85 0.81,-2.02 0,0 z m -3.63,0.13 c 0.58,1.24 0.24,-0.33 0,0 z m 4.66,0.21 c -1.05,0.06 2.14,1.1 0.47,1.13 -2.05,0.14 0.03,0.61 1.25,0.53 -0.22,-0.82 -0.27,-0.72 -0.88,-1.25 -0.1,0.04 -0.47,-0.66 -0.84,-0.41 z m -7.41,0.04 0.03,-0.04 z m -0.34,0.09 0.28,-0.09 z m -0.19,0.06 0.13,-0.03 z m -0.25,0.03 c 0.1,0.06 0.48,-0.13 0,0 z m -330.25,0.28 c 0.07,0.65 -0.18,0 0,0 z m 332.78,0.82 c 0.54,1.08 3.18,-0.44 0.75,0.06 -1.45,0.52 0.46,-0.81 -0.75,-0.06 z m 2.88,0.5 c 0.66,-0.67 -0.71,-0.67 0,0 z m -6.78,0.25 0.34,-0.32 z m -1.03,0.28 c 0.54,0.85 1.37,-1 0,0 z m -370.25,7.94 c 2.37,-0.02 -1.55,0.46 -0.32,0.03 l 0.28,-0.03 z m 299.43,2.56 c -1.52,1.63 2.34,3.06 1.69,0.78 -0.22,-0.56 -1.23,-1.61 -1.69,-0.78 z m -140.72,0.06 c 0.54,0.26 -0.52,0.55 0,0 z m -38.15,0.44 c -1.36,-0.2 -1.67,1.52 -0.13,1.34 1.08,0.4 3.85,-0.31 2.03,-1.25 -0.61,-0.15 -1.27,-0.16 -1.9,-0.09 z m 19.69,0.06 c 0.05,-0.04 0.03,0.1 0,0 z m -138.29,2.47 c -0.04,0.03 -0.11,-0.11 0,0 z m -0.06,0.16 v 0.03 z m 218.88,0.43 c 0.98,1.13 3.46,-0.83 2.72,1.38 0.48,2.03 -1.88,0.55 -2.82,0.75 0.04,-0.67 0.03,-1.59 0.1,-2.13 z m -98.07,0.82 c 1.48,1.95 1.36,5.04 0.38,7.18 -2.16,0.55 0.68,2.18 1.84,1.88 2.05,-0.07 3.7,2.25 6,1.47 2.4,-0.11 -1.66,0.26 -2.47,0 -1.52,-0.05 -2.95,-0.61 -3.9,-1.38 -0.86,0.18 -0.34,1.75 -1.69,1.28 -1.99,1.12 -0.46,-1.74 -1,-2.97 0.07,-1.49 -0.44,-3.6 -0.5,-4.71 1.15,-0.04 1.04,-3.06 1.34,-2.75 z m 97.97,2.31 c 2.51,0.63 3,4.89 1.13,6 -0.54,-1.11 2.01,-3.56 -0.31,-3.72 -1.46,0.99 -0.71,-1.76 -0.82,-2.28 z m 124.38,2.5 c -1.35,0.24 -2.93,2.92 -0.69,2.34 1.22,-0.03 2.76,-2.5 0.69,-2.34 z m -0.88,4.56 c -1.23,1.03 0.44,3.74 1.1,1.59 0.26,-0.7 -0.18,-2.26 -1.1,-1.59 z m -226.22,0.72 c 1.54,0.04 1.35,0.4 0.07,0.41 -0.53,0.74 -0.83,0.17 -1.44,-0.16 0.44,-0.18 0.9,-0.23 1.37,-0.25 z m 4,1.34 c 1.77,1.4 4.83,0.29 6.66,1.32 0.17,1.36 0.73,4 -1.62,3.3 -1.83,-0.3 -3.82,0.88 -5.32,0.7 -0.08,-1.48 -1.43,-4.41 0.28,-5.32 z m -3.78,0.41 c 0.82,1 0.53,1.36 0,0 z m 112.82,0.81 c 1.42,0.09 6.7,0.11 2.68,0.19 -0.89,0.04 -6.09,-0.4 -2.68,-0.19 z m 8.56,0.1 c 1.42,-0.7 -1.54,2.48 -0.81,0.96 -0.02,-0.59 0.15,-1 0.81,-0.96 z m 8.19,0.87 c 0.01,1.23 -0.68,2.87 -0.29,0.69 -0.03,0.05 0.24,-1.25 0.29,-0.69 z m 98.28,-0.09 c 0.46,0.85 -0.48,1.81 -1.16,1.12 0.28,-0.45 0.73,-0.85 1.16,-1.12 z m -61.25,0.43 c -1.84,0.44 -0.95,2.87 0.65,1.85 0.9,-0.57 0.51,-2.17 -0.65,-1.85 z m -19.44,0.1 c 2.09,0.4 -0.6,1.63 -0.34,0.06 l 0.25,-0.06 z m 3.78,0.37 c 1.64,-0.45 3.11,1.11 1.88,2.47 -2.8,1.59 -3.51,-2.74 -1.88,-2.47 z m -42.72,0.25 c 2.59,0.29 5.86,-0.13 8.03,1.28 0.15,1.11 -2.2,-0.65 -3.09,-0.34 -1.58,-0.41 -4.1,-0.17 -5.03,0.41 -0.07,-1.32 -3.47,-0.11 -1.97,-1.25 0.68,-0.1 1.38,-0.04 2.06,-0.1 z m 127.25,0.13 c -1.51,-0.05 -1.67,1.79 -0.12,1.9 0.89,0.75 3.43,0.86 2.4,-0.78 -0.47,-0.77 -1.36,-1.32 -2.28,-1.12 z m -117.37,0.75 c -0.06,1.67 -0.24,0.18 0,0 z m -0.22,2.65 v -0.03 z m 0,0 c -0.79,0.31 -0.13,2.32 -0.28,2.29 -0.32,0.79 0.08,0.47 -0.28,1.28 0.7,0.77 0.59,-0.84 0.43,-0.88 -0.16,-0.64 0.89,-2.05 0.13,-2.69 z m 0,0.04 c 0.1,-0.04 -0.05,-0.06 0,0 z m -0.03,0.09 c -0.14,0.07 -0.02,-0.1 0,0 z m 0.06,-0.03 c -0.05,0.12 -0.05,-0.12 0,0 z m 117.09,0.87 c -0.53,0.22 -1.82,1.5 -1.06,0.38 0.05,-0.24 1.83,-0.64 1.06,-0.38 z m -55.18,1.03 c 1.03,0.25 2.65,2.6 0.65,2.44 -4.41,-0.42 -9.32,0.16 -13.37,-1.78 -0.01,-1.22 4.86,-0.28 6.68,-0.53 2.03,-0.22 3.8,0.55 5.63,0.94 0.9,-0.03 0.09,-1.33 0.41,-1.07 z m 6.21,0.44 c -1.34,1.72 2.21,1.04 2.41,1.56 -1.14,0.37 -3.63,1.35 -4.5,0.22 -0.44,-1.21 1.33,-0.3 1.34,-1.59 0.21,-0.13 0.48,-0.12 0.75,-0.19 z m 47.04,0.69 c -0.48,1.37 0.12,-1.1 0,0 z m -81.79,3.25 c 3.74,-0.06 -0.74,0.44 -0.5,0.03 0.17,0 0.34,-0.03 0.5,-0.03 z m 4.29,0 c 1.32,0.35 -0.29,0.56 0,0 z m 11.15,0.06 c 4.12,0.12 9.34,0.42 12.72,0.69 -4.93,0.03 -10,0.4 -14.84,-0.5 0.67,-0.23 1.42,-0.11 2.12,-0.19 z m 66.19,0.5 c 0.33,1.13 2.2,0.12 2.25,0.41 -0.83,0.02 -4.04,0.93 -2.25,-0.41 z m -48.75,0.28 c 1.3,-0.16 1.66,0.66 0.28,0.75 -0.75,0.17 -1.47,-0.72 -0.28,-0.75 z m 47.19,9.38 c 0.42,0.93 -1.75,0.59 -0.25,0.06 0.09,0.01 0.15,-0.09 0.25,-0.06 z"
     style="fill-opacity:1"
     id="path3305" />
  <use
     transform="matrix(1,0,0,-1,0,512.3356)"
     style="opacity:0.677596;fill:url(#linearGradient3133);fill-opacity:1"
     id="use2230"
     x="0"
     y="0"
     width="744.09003"
     height="1052.36"
     xlink:href="#path3305" />
  <path
     id="path3305-6"
     style="fill:url(#linearGradient881);fill-opacity:1"
     d="m 102.30985,349.3878 c 0.03,-1.18 -0.43,-1.75 -1.28,-2.32 -0.15,-1.72 -1.35,1.18 -2.37,-0.15 -1.73,-1.58 0.3,-4.56 -1.57,-5.85 0.12,-1.17 0.13,-1.35 -0.81,-0.37 -1.84,0.88 -1.38,-1.93 -0.78,-2.66 -0.68,-0.65 -0.94,-0.97 -1.69,-0.06 -2.36,0.21 -0.36,-3.49 -0.84,-4.72 -0.98,0.52 -3.81,0.77 -2.63,-1.06 0.39,-1.2 1.22,-4.47 -0.68,-2.72 -1.21,0.98 -4.85,-0.69 -3,-1.87 1.92,-0.2 2.45,-3.8 0.34,-3.94 -0.45,-0.91 -0.12,-2.26 -1.47,-2.63 -1.32,-0.21 -3.12,-0.64 -2.37,-2.47 -0.18,-0.96 1.58,-1.99 1.12,-2.5 -2.76,-0.39 -5.53,1.15 -8.37,1 -2.48,0.03 -4.56,0.82 -6.66,1.63 -1.6,-0.2 -1.07,1.38 0.25,1.19 1.62,1.08 -0.55,2.66 -1.84,2.12 -1.19,-0.21 -3.21,0.82 -1.91,2.06 0.64,1.12 -0.96,3.21 0.97,3 1.75,0.26 1.17,2.73 -0.63,2 -1.4,-0.3 -1.91,0.59 -2.12,1.66 -0.57,0.74 -1.97,-0.28 -1.19,1.28 0.53,1.19 -0.18,2.36 -0.94,2.75 -0.08,1.88 -0.55,4.56 -2.5,4.94 -1.3,1.21 0.66,2.35 -0.25,3.72 -0.74,1.58 -1.53,4.57 -3.62,4.5 -0.89,-1.02 -1.06,-1.25 -1.75,0 -1.1,1.29 -2.24,-0.59 -1.63,-1.53 -1.33,0.11 -3.09,0.3 -4.15,-0.13 -0.52,1.34 -1.94,1.45 -2.69,0.41 -2.35,0.11 -0.58,-3.7 -2,-4.75 -0.55,-1.31 -0.55,-2.94 -0.31,-4.25 -1.54,1.83 -2.53,-1.33 -2.35,-2.59 0.45,-2.3 -2.2,-3.18 -2.22,-5.13 0.1,-0.63 -1.27,-1.3 -0.53,-2.31 0.1,-1.32 -0.1,-3.78 -2.03,-2.66 -1.45,0.93 -4.74,-0.72 -4.69,1.78 -0.86,1.53 -1.78,3.94 -3.62,4.31 -0.82,-0.84 0.1,-2.5 -1.56,-2.37 -1.56,-0.61 -2.37,-2.31 -3.1,-3.41 -1.31,-0.14 -0.4,-1.92 -2.09,-1.97 -1.31,-0.93 -3.39,-0.95 -3.44,1.04 -0.03,1.26 -1.76,1.43 -2.06,1.9 0.78,0.72 1.78,2.56 -0.13,2.28 -0.78,-0.08 -3.35,-0.62 -1.43,0.03 1.11,0.86 -1.74,0.84 -0.53,1.94 1.25,1.59 -1.02,2.03 -1.6,2.75 0.82,1.05 -0.08,2.27 -1.06,1.85 -0.32,1.61 -2.59,-0.58 -3.19,1.18 -0.93,0.78 -0.96,4.25 -2.62,2.6 -0.94,-1.05 -2.1607,-3.48576 -3.4707,-3.72576 -1.86,1.64 -2.69,-1.37 -2.28,-2.84 -0.16,-1.99 -0.3726,-3.63383 -1.2026,-5.47383 -0.81,-23.92 -0.4942,-47.79753 -0.6542,-71.72753 l 603.8275,0.0471 v 65.5 c -1.1,-0.16 0.52,1.67 -0.07,2.59 -0.51,2.52 1.08,6.31 -2.19,7.22 -3.86,2.32 -7.62,4.93 -11.53,7.09 -14.25,-1.07 -28.58,-1.31 -42.78,-2.87 -4.82,-1.15 -9.22,-4.57 -14.46,-3.33 -3.51,-0.03 -7.79,2.08 -10.91,-0.01 -0.8,-0.88 0.24,-1.99 -1.16,-2.25 -1.77,-1.63 -2.95,-4.23 -5.34,-1.49 -3.18,1.45 -5.95,4.77 -9.74,3.56 -11.03,-0.64 -22.1,-1.94 -33.14,-1.26 -5.97,0.45 -12.18,2.05 -17.93,2.34 -1.22,-1.4 -2.82,-3.26 -3.13,-4.84 -4.36,-4.06 -8.57,-9.17 -11.75,-14.22 -2.14,0.6 -3.47,-3.8 -0.62,-3.38 1.64,-0.36 0.52,-3.14 0.56,-4.37 -0.21,-3.01 -2.83,-5.56 -2.78,-8.47 1.03,-0.36 2.33,-0.64 2.53,-2.06 0.69,-1.77 0.93,-4.25 0,-5.88 -1.38,1.29 -3.32,-1 -1.81,-2.03 -1.05,-0.87 -0.48,1.96 -1.32,2.47 -0.64,1.46 -1.8,0.56 -2.37,-0.31 -0.96,-0.49 0.76,1.67 -1.5,1.13 -1.37,0.18 -3.68,0.1 -4.53,0.87 0.97,0.38 2.76,-1.04 2.81,0.75 1.42,1.29 -0.84,3.64 -1.53,1.65 0.28,-1.19 -2.23,-0.43 -1.41,0.82 0.16,3.1 -0.04,7.21 0.35,9.75 1.19,-0.75 4.95,-0.07 3.34,1.78 -1.11,0.65 -2.7,-0.08 -3.47,-0.97 -1.01,3.58 1.6,2.54 3.97,2.59 1.85,-0.12 1.21,2.13 -0.34,1.85 -1.35,0.44 -4.22,-0.74 -3.6,1.65 -0.85,2.84 3.9,-0.24 3.53,2.38 -2.76,2.18 -6.93,1.02 -10.15,0.69 1.38,-0.98 5.51,-1.19 4.81,-3.63 -0.74,-0.82 -3.73,-0.28 -2.63,-1.84 2.6,-0.18 2.09,-3.12 2.13,-5 -0.7,-2.37 1.64,-6.9 -1.63,-7.44 -1.12,0.05 -2.9,-3.01 -2.5,-0.63 -0.01,1.66 1.57,2.75 0.85,4.66 -1.62,1.92 -0.17,5.14 -1.6,7.28 -1.9,-0.37 -0.83,-3.54 -1.3,-5 -0.25,-3.51 0.26,-7.44 -1.41,-10.56 0.64,-0.74 -0.85,-2.78 -1.19,-0.94 -1.31,8.76 0.24,18 -1.19,26.78 -1.42,1.13 -1.41,-1.32 -2.06,-1.75 -1.33,-0.08 -0.91,-1.08 -0.06,-1.53 0.78,-7.3 0.54,-14.75 0.21,-22.09 -0.04,-1.27 -2.33,-0.39 -2.21,-2 -0.53,-1.15 0.57,-3.21 -1.1,-3.25 -1.07,-0.53 -1,-2.55 -2.29,-0.88 -1.15,0.74 -2.75,1.6 -2.4,3.07 -1.28,0.04 -0.71,1.29 -0.93,2.5 0,1.97 -1.5,7.18 -1.68,2.65 -0.3,-1.5 0.4,-4.12 -0.45,-5.19 -1.49,0.73 -3.41,-0.13 -4.37,-0.62 -0.3,1.26 -1.46,0.69 -1.97,0 -2.13,-0.86 -3.64,1.93 -2.25,3.31 1.43,-0.34 2.72,1.18 0.87,1.53 -1.55,1.8 -0.48,5.06 -0.84,7.32 -0.12,8.53 0.89,17.18 0.03,25.65 -0.57,1.52 -2.32,0.37 -1.97,-1 -0.57,-9.04 0.01,-18.32 -1.5,-27.22 -1.26,-0.02 -1.1,-1.66 -2.44,-1.53 -0.87,-0.53 -0.55,-2.36 -1.4,-0.81 -1.5,1.16 -2.85,-1.59 -3.1,-2.81 0.91,-2.23 4.57,-0.24 5.94,-1.47 0.63,-3.36 -2.07,-2.5 -4.37,-2.15 -2.02,-0.18 -4.2,0.83 -3.85,3.12 -0.5,5.71 0.61,11.8 -0.81,17.31 -1.74,0.67 -1.22,-2.77 -1.45,-3.87 -0.38,-5.27 0.34,-10.73 -0.64,-15.88 -5.36,-0.06 -10.9,0.02 -16.16,0.94 -0.78,0.61 -0.72,3.41 -1.94,1.97 -0.03,-0.97 0.11,-3.02 -1.4,-1.94 -1.28,0.73 -3.29,1.81 -4.13,-0.06 -1.64,-1.68 -1.52,1.4 -1.37,2 1.32,-1.71 3.78,2.08 1.22,1.87 -0.9,-0.03 -1.62,-2.08 -1.35,-0.09 0.36,5.31 -0.71,10.94 0.78,16.06 0.56,1.11 4.09,4 1.47,3.41 -1.05,-0.85 -2.15,-2.4 -3.44,-1.32 -1.7,-1.32 -0.59,-4.65 -0.96,-6.68 -0.3,-3.66 0.61,-7.92 -1.13,-11.22 -1.13,-0.39 -3.12,-1.64 -2.46,0.53 0.47,1.07 -0.47,3.95 -1.48,2 -0.04,-0.95 -1.44,-2.79 -1.34,-0.81 -0.22,1.53 2.57,2.28 1.03,3.75 -0.85,0.86 -2.22,1.64 -0.84,2.65 0.8,1.74 -1.02,3.11 -2.38,3.22 0.05,1.01 0.29,4.32 -1.5,3.22 -0.87,-1.44 -2.96,1.42 -3.31,-0.59 0.23,-0.99 0.88,-2.97 -0.91,-1.97 -2.21,0.32 1.01,1.27 0.44,2.62 0.34,1.21 -1.08,1.28 -1.34,1.72 -0.15,1.95 -0.44,5.18 -2.47,5.84 -0.71,-0.55 -0.14,-3.09 -0.85,-1.09 0.12,1.94 -1.97,4.26 -3.78,2.66 -0.63,-0.85 0.55,-2.16 -0.62,-2.63 -0.97,-2.71 1.96,-4.42 2,-6.87 -1.26,-0.95 -5.47,-1.1 -4.35,-3.5 0.47,-0.81 1.42,-2.96 0.69,-3.32 -2.62,0.89 -1.45,-3.54 0.47,-3.4 1,-1.61 -1.53,-1.95 -1.53,-3.6 -0.88,1.51 -1.71,-0.02 -1.66,-1.18 -0.57,0.87 -1.71,0.7 -0.5,1.43 0.52,2.07 -2.57,1.25 -3.53,1.57 -0.44,1.26 -2.55,0.45 -1.75,2.4 -0.12,3.2 1.44,6.65 0.53,9.69 -1.63,1.13 -1.55,-2.26 -1.78,-3.28 -0.65,-2.88 0.2,-6.86 -2.15,-8.97 -1.23,-0.55 -3.28,-0.4 -2.54,1.44 0.3,1.08 2.06,1.54 0.91,2.87 -1.67,2.86 -0.46,6.57 -1.56,9.63 -1.25,-3.11 -0.81,-6.88 -2.56,-9.72 -0.15,-1.12 2.05,-3.24 -0.38,-3.09 -2.53,-0.62 -5.65,0.99 -4.81,3.96 -0.16,1.74 1.53,2.7 3.06,2.66 0.48,2.04 -3.06,0.25 -2.47,2.41 -0.6,2.04 3.55,0.43 2.22,2.25 -0.98,0.7 -3.26,1.77 -3.78,0.15 -0.71,0.64 -2.02,1.05 -2.81,0.28 -0.31,1.32 0.82,4.26 -0.94,4.57 -1.76,-2.49 0.08,-6.26 -1.59,-8.69 -1.09,0.37 -2.45,0.06 -2.6,-1.22 -0.71,4.15 -1.31,0.43 -2.78,-1.19 -1.21,-1.25 -1.44,-0.04 -0.91,1.16 0.47,1.72 -1.93,1.94 -1.96,0.28 0.3,-1.63 -0.72,-1.14 -1.75,-1.25 -1.18,-0.07 -0.97,-2.65 -1.82,-1 -1.13,0.44 -0.74,-1.16 -1.87,-0.97 -1.56,-0.52 -2.18,-3.72 -3.66,-1.25 -1.55,2.54 -2.73,1.68 -4,-0.34 -1.11,-1.05 -3.82,-1.54 -3.47,0.78 -0.21,1.8 -0.42,4.75 -2.47,5.19 -0.47,-0.94 -0.62,-1.31 -1.37,-0.03 -0.7,1.18 -1.45,4.39 -3.34,2.9 -0.68,-0.47 -1.54,-2.99 -1.79,-0.94 0.38,1.34 -0.86,3.76 -2.25,2.29 -0.47,-1.5 -2.08,-0.72 -1.68,0.68 0.04,1.65 -1.88,2.04 -1.75,3.75 -0.05,1.69 -1.9,1.22 -2.22,0 0.08,1.92 -0.32,5.84 -3.16,4.6 -1.5,-0.33 -2.3,-2.15 -2.81,-3.03 -1.07,0.64 -1.45,-1.36 -2.25,0.28 -1.9,1.63 -2.66,-1.88 -3.03,-3.16 -0.1,-1.06 0.35,-1.51 -0.97,-1.53 -0.21,0.2 -0.32,1.45 -0.91,1.53 1.06,0.93 0.6,3.42 -0.93,2.31 -0.56,-0.91 -2.63,-2.11 -2.66,-0.25 0.08,1.05 -1.17,1.45 -1.84,0.94 0.74,0.73 1.64,2.12 -0.1,2.22 -2.51,-0.45 0.15,2.44 0.06,3.62 0.34,1.77 1.72,7.14 -0.6,3.4 -0.23,-0.44 -2.57,-2.89 -1.3,-1.33 1.32,1.08 0.07,4.05 -1.41,2.37 -0.59,-0.85 -1.06,-3.61 -1.53,-1.22 0.63,1.04 -0.13,1.74 -0.94,1.72 -0.82,1.8 -0.57,5.99 -1.67,6.13 -0.76,-1.77 -0.87,-4.57 -0.67,-6.07 -0.43,0.77 -1.39,1.6 -1.94,0.22 -0.5,-0.77 -1.02,-1.02 -0.97,0.03 -0.4,1.4 -2.66,1.92 -2.31,-0.06 0.01,-2.1 -2.1,-0.48 -2.84,0.19 -2,0.03 -0.53,-3.81 -0.91,-3.84 -1.13,1.42 -2.59,-0.07 -1.66,-1.41 0.72,-1.68 1.91,-3.31 1.91,-5.03 1.15,-0.6 -0.32,-2.47 1.28,-2.1 1.12,0.71 1.28,-3.34 -0.31,-1.87 -0.52,0.93 -2.34,2.57 -3.22,1.06 -0.54,-1.28 2.85,-2.9 0.13,-2.62 -4.72,-0.19 -9.93,1.69 -14.38,-0.07 -1.03,-0.71 -1,-2.18 -0.72,-3.31 -1.18,0.56 -1.43,-0.36 -1.56,1.31 -0.87,2 -1.58,-0.53 -2.28,-1.18 -1.09,-0.49 -0.38,-1.56 0.53,-1.57 0.86,-1.55 -0.97,-1.84 -0.53,-3.56 0.18,-1.35 0.11,-2.98 -1.63,-2.72 -0.83,0.03 -1.21,-2.08 -1.75,-0.68 -0.31,5.58 0.9,11.21 0.88,16.75 -1.57,1.78 -1.73,-2.11 -1.81,-3.13 -0.69,-5.07 -0.67,-10.4 -1.16,-15.37 -1.05,-0.98 -3.14,-1.3 -3.5,-2.63 -1.11,0.71 -1.43,4.37 -3.06,3.13 -0.78,-0.44 -2.61,1.5 -2.91,-0.41 -0.89,-0.54 -0.84,1.5 -1.66,1.62 1.06,0.59 0.62,2.14 1.88,2.6 0.29,2.02 -1.42,4.12 0,6.03 -0.14,1.43 -1.62,2.38 -1.44,4.09 0.35,1.79 -0.74,2.93 -2.28,2.41 -1.38,1.47 2.77,2.45 0.84,3.91 -1.59,-0.16 -4.36,-0.65 -5.15,1.25 0.58,0.86 1.74,1.99 0.5,2.9 -0.53,1.77 -0.26,3.94 -0.91,5.53 1.1,0.66 2.44,3.35 0.13,3 -2.12,-0.14 -3.11,1.77 -3.63,3.44 -0.31,0.81 -2.86,1.89 -0.84,1.78 1.17,-1.48 4.84,-0.39 3.62,1.56 -3.42,1.92 -6.69,-1.27 -8.84,-3.62 -0.11,4.51 1.26,9.37 0.12,13.72 -2.05,1.22 -2.32,-2.43 -2.57,-3.75 -0.41,-3.73 -1.28,-7.4 -2.55,-10.78 0.84,-0.7 1.47,-2.9 0.34,-3.57 -0.91,0.18 -3.66,-0.1 -2.12,-1.34 2.05,-0.36 2.16,-2.07 1.53,-3.83 -1.26,-3.19 -1.17,-6.63 -1.57,-10.03 0.09,-2.03 -2.83,-3.96 -0.99,-5.8 -2.57,-0.28 -5.46,-0.53 -4.35,2.91 -0.4,1.93 1.82,3.14 0.72,5 -0.67,1.22 0.75,4.54 -1.22,4.25 -0.53,-0.33 -1.72,-2.48 -1.18,-0.66 0.57,1.85 -1.19,3.03 -0.66,4.97 0.33,1.28 -0.21,3.12 -0.84,3.63 0.77,0.96 -0.18,1.7 0.56,2.75 0.08,1.83 -2.36,1.52 -3.06,2.97 -0.99,0.75 -1.51,-0.45 -2.41,0.15 -1.74,-0.68 -1.38,-3.19 -1.56,-4.22 -1.05,0.65 -2.84,0.03 -2.03,-1.4 -1.7,-0.42 -0.36,-2.52 -0.13,-3.56 -0.97,1.54 -2.91,1.2 -4.28,1.56 -0.53,1.18 -2,-0.81 -1.5,0.9 0.6,1.32 -1.04,1.46 -1.34,1.54 -0.42,2.04 -3.41,-0.68 -4.19,1.09 -2.44,0.42 -3.69,-3.51 -6.19,-3.13 -0.72,1.11 -2.29,1.16 -3.25,1.97 -1.68,-0.23 -2.61,-2.26 -4.28,-2.03 -0.61,-0.98 -0.98,-3.22 -2.25,-1.72 -0.91,0.2 1.26,1.59 0.5,2.69 -0.5,1.8 -3.14,2.62 -2.25,4.72 -0.74,1.33 -3.86,-0.77 -2.38,1 0.65,1.33 0.91,3.73 -0.71,4.37 1.95,2.33 -0.37,4.84 -1.88,6.54 0.15,1.45 -1.32,1.66 -2.12,2.28 -0.2,0.49 -0.8,2.84 -1.35,1.25 z m 61.28,-17.6 c 1.21,-0.73 -1.02,-1.79 -0.25,-0.56 0.09,-0.11 0.08,0.79 0.25,0.56 z m 289.41,-2.31 c 0.42,-0.02 0.41,1.09 0,0 z m 0.34,-0.25 c 0.24,-0.32 0.66,1.26 0,0 z m -0.4,0.06 v 0.03 z m 1.72,-1.31 c 1.34,-1.41 0.82,-1.16 0.81,-0.16 -0.16,-0.77 -0.86,0.56 -0.81,0.16 z m -1.1,-0.94 c 0.39,-0.45 0.68,0.58 0,0 z m 2.16,-0.37 c 0.23,-0.31 0.91,0.93 0,0 z m -2.16,0.09 c 1.32,-0.39 -0.15,0.51 0,0 z m -0.06,-0.12 c 1.1,-0.69 0.13,0.45 0,0 z m -0.06,-0.16 c 1.13,-0.89 -0.02,0.36 0,0 z m 2.15,-0.12 c 0.04,0.35 -1.26,0.06 0,0 z m 0.38,-0.1 c -0.04,-0.39 1.15,0.92 0,0 z m -2.69,-0.03 c 0.98,-0.96 0.13,0.39 0,0 z m 2.84,-0.31 c 0.23,-0.3 1.01,0.77 0,0 z m -3,0.12 c 0.26,-1.48 0.74,0.62 0,0 z m 0.1,-0.59 c -0.09,0.52 -0.81,0.49 0,0 z m -2.66,0.34 0.03,0.03 z m 5.66,-0.09 c 0.51,-1.85 0.81,2.02 0,0 z m -3.63,-0.13 c 0.58,-1.24 0.24,0.33 0,0 z m 4.66,-0.21 c -1.05,-0.06 2.14,-1.1 0.47,-1.13 -2.05,-0.14 0.03,-0.61 1.25,-0.53 -0.22,0.82 -0.27,0.72 -0.88,1.25 -0.1,-0.04 -0.47,0.66 -0.84,0.41 z m -7.41,-0.04 0.03,0.04 z m -0.34,-0.09 0.28,0.09 z m -0.19,-0.06 0.13,0.03 z m -0.25,-0.03 c 0.1,-0.06 0.48,0.13 0,0 z m -330.25,-0.28 c 0.07,-0.65 -0.18,0 0,0 z m 332.78,-0.82 c 0.54,-1.08 3.18,0.44 0.75,-0.06 -1.45,-0.52 0.46,0.81 -0.75,0.06 z m 2.88,-0.5 c 0.66,0.67 -0.71,0.67 0,0 z m -6.78,-0.25 0.34,0.32 z m -1.03,-0.28 c 0.54,-0.85 1.37,1 0,0 z m -370.25,-7.94 c 2.37,0.02 -1.55,-0.46 -0.32,-0.03 l 0.28,0.03 z m 299.43,-2.56 c -1.52,-1.63 2.34,-3.06 1.69,-0.78 -0.22,0.56 -1.23,1.61 -1.69,0.78 z m -140.72,-0.06 c 0.54,-0.26 -0.52,-0.55 0,0 z m -38.15,-0.44 c -1.36,0.2 -1.67,-1.52 -0.13,-1.34 1.08,-0.4 3.85,0.31 2.03,1.25 -0.61,0.15 -1.27,0.16 -1.9,0.09 z m 19.69,-0.06 c 0.05,0.04 0.03,-0.1 0,0 z m -138.29,-2.47 c -0.04,-0.03 -0.11,0.11 0,0 z m -0.06,-0.16 v -0.03 z m 218.88,-0.43 c 0.98,-1.13 3.46,0.83 2.72,-1.38 0.48,-2.03 -1.88,-0.55 -2.82,-0.75 0.04,0.67 0.03,1.59 0.1,2.13 z m -98.07,-0.82 c 1.48,-1.95 1.36,-5.04 0.38,-7.18 -2.16,-0.55 0.68,-2.18 1.84,-1.88 2.05,0.07 3.7,-2.25 6,-1.47 2.4,0.11 -1.66,-0.26 -2.47,0 -1.52,0.05 -2.95,0.61 -3.9,1.38 -0.86,-0.18 -0.34,-1.75 -1.69,-1.28 -1.99,-1.12 -0.46,1.74 -1,2.97 0.07,1.49 -0.44,3.6 -0.5,4.71 1.15,0.04 1.04,3.06 1.34,2.75 z m 97.97,-2.31 c 2.51,-0.63 3,-4.89 1.13,-6 -0.54,1.11 2.01,3.56 -0.31,3.72 -1.46,-0.99 -0.71,1.76 -0.82,2.28 z m 124.38,-2.5 c -1.35,-0.24 -2.93,-2.92 -0.69,-2.34 1.22,0.03 2.76,2.5 0.69,2.34 z m -0.88,-4.56 c -1.23,-1.03 0.44,-3.74 1.1,-1.59 0.26,0.7 -0.18,2.26 -1.1,1.59 z m -226.22,-0.72 c 1.54,-0.04 1.35,-0.4 0.07,-0.41 -0.53,-0.74 -0.83,-0.17 -1.44,0.16 0.44,0.18 0.9,0.23 1.37,0.25 z m 4,-1.34 c 1.77,-1.4 4.83,-0.29 6.66,-1.32 0.17,-1.36 0.73,-4 -1.62,-3.3 -1.83,0.3 -3.82,-0.88 -5.32,-0.7 -0.08,1.48 -1.43,4.41 0.28,5.32 z m -3.78,-0.41 c 0.82,-1 0.53,-1.36 0,0 z m 112.82,-0.81 c 1.42,-0.09 6.7,-0.11 2.68,-0.19 -0.89,-0.04 -6.09,0.4 -2.68,0.19 z m 8.56,-0.1 c 1.42,0.7 -1.54,-2.48 -0.81,-0.96 -0.02,0.59 0.15,1 0.81,0.96 z m 8.19,-0.87 c 0.01,-1.23 -0.68,-2.87 -0.29,-0.69 -0.03,-0.05 0.24,1.25 0.29,0.69 z m 98.28,0.09 c 0.46,-0.85 -0.48,-1.81 -1.16,-1.12 0.28,0.45 0.73,0.85 1.16,1.12 z m -61.25,-0.43 c -1.84,-0.44 -0.95,-2.87 0.65,-1.85 0.9,0.57 0.51,2.17 -0.65,1.85 z m -19.44,-0.1 c 2.09,-0.4 -0.6,-1.63 -0.34,-0.06 l 0.25,0.06 z m 3.78,-0.37 c 1.64,0.45 3.11,-1.11 1.88,-2.47 -2.8,-1.59 -3.51,2.74 -1.88,2.47 z m -42.72,-0.25 c 2.59,-0.29 5.86,0.13 8.03,-1.28 0.15,-1.11 -2.2,0.65 -3.09,0.34 -1.58,0.41 -4.1,0.17 -5.03,-0.41 -0.07,1.32 -3.47,0.11 -1.97,1.25 0.68,0.1 1.38,0.04 2.06,0.1 z m 127.25,-0.13 c -1.51,0.05 -1.67,-1.79 -0.12,-1.9 0.89,-0.75 3.43,-0.86 2.4,0.78 -0.47,0.77 -1.36,1.32 -2.28,1.12 z m -117.37,-0.75 c -0.06,-1.67 -0.24,-0.18 0,0 z m -0.22,-2.65 v 0.03 z m 0,0 c -0.79,-0.31 -0.13,-2.32 -0.28,-2.29 -0.32,-0.79 0.08,-0.47 -0.28,-1.28 0.7,-0.77 0.59,0.84 0.43,0.88 -0.16,0.64 0.89,2.05 0.13,2.69 z m 0,-0.04 c 0.1,0.04 -0.05,0.06 0,0 z m -0.03,-0.09 c -0.14,-0.07 -0.02,0.1 0,0 z m 0.06,0.03 c -0.05,-0.12 -0.05,0.12 0,0 z m 117.09,-0.87 c -0.53,-0.22 -1.82,-1.5 -1.06,-0.38 0.05,0.24 1.83,0.64 1.06,0.38 z m -55.18,-1.03 c 1.03,-0.25 2.65,-2.6 0.65,-2.44 -4.41,0.42 -9.32,-0.16 -13.37,1.78 -0.01,1.22 4.86,0.28 6.68,0.53 2.03,0.22 3.8,-0.55 5.63,-0.94 0.9,0.03 0.09,1.33 0.41,1.07 z m 6.21,-0.44 c -1.34,-1.72 2.21,-1.04 2.41,-1.56 -1.14,-0.37 -3.63,-1.35 -4.5,-0.22 -0.44,1.21 1.33,0.3 1.34,1.59 0.21,0.13 0.48,0.12 0.75,0.19 z m 47.04,-0.69 c -0.48,-1.37 0.12,1.1 0,0 z m -81.79,-3.25 c 3.74,0.06 -0.74,-0.44 -0.5,-0.03 0.17,0 0.34,0.03 0.5,0.03 z m 4.29,0 c 1.32,-0.35 -0.29,-0.56 0,0 z m 11.15,-0.06 c 4.12,-0.12 9.34,-0.42 12.72,-0.69 -4.93,-0.03 -10,-0.4 -14.84,0.5 0.67,0.23 1.42,0.11 2.12,0.19 z m 66.19,-0.5 c 0.33,-1.13 2.2,-0.12 2.25,-0.41 -0.83,-0.02 -4.04,-0.93 -2.25,0.41 z m -48.75,-0.28 c 1.3,0.16 1.66,-0.66 0.28,-0.75 -0.75,-0.17 -1.47,0.72 -0.28,0.75 z m 47.19,-9.38 c 0.42,-0.93 -1.75,-0.59 -0.25,-0.06 0.09,-0.01 0.15,0.09 0.25,0.06 z"
     sodipodi:nodetypes="ccccccccccccccccccccccccccccccccccccccccccccccccccccccccccccccccccccccccccccccccccccccccccccccccccccccccccccccccccccccccccccccccccccccccccccccccccccccccccccccccccccccccccccccccccccccccccccccccccccccccccccccccccccccccccccccccccccccccccccccccccccccccccccccccccccccccccccccccccccccccccccccccccccccccccccccccccccccccccccccccccccccccccccccccccccccccccccccccccccccccccccccccccccccccccccccccccccccccccccccccccccccccccccccccccccccccccccccccccccccccccccccccccccccccccccccccccccccccccccccccccccccccccccccccccc" />
</svg>
