<?xml version="1.0" encoding="UTF-8"?>
<svg xmlns:rdf="http://www.w3.org/1999/02/22-rdf-syntax-ns#" xmlns="http://www.w3.org/2000/svg" xmlns:cc="http://web.resource.org/cc/" xmlns:xlink="http://www.w3.org/1999/xlink" xmlns:dc="http://purl.org/dc/elements/1.1/" xmlns:svg="http://www.w3.org/2000/svg" xmlns:inkscape="http://www.inkscape.org/namespaces/inkscape" xmlns:sodipodi="http://sodipodi.sourceforge.net/DTD/sodipodi-0.dtd" xmlns:ns1="http://sozi.baierouge.fr" id="Layer_1" xml:space="preserve" viewBox="0 0 300 300" y="0px" version="1.1" enable-background="new 0 0 300 300" x="0px">
<radialGradient id="SVGID_1_" gradientUnits="userSpaceOnUse" cy="91.239" cx="126.91" r="138.42">
	<stop stop-color="#BCBEC0" offset="0"/>
	<stop stop-color="#9FA1A3" offset=".2851"/>
	<stop stop-color="#898B8D" offset=".5718"/>
	<stop stop-color="#7C7D80" offset=".8202"/>
	<stop stop-color="#77787B" offset="1"/>
</radialGradient>
<circle stroke="#6D6E71" cx="145.84" r="90.566" cy="158.33" fill="url(#SVGID_1_)"/>
<radialGradient id="SVGID_2_" gradientUnits="userSpaceOnUse" cy="95.74" cx="128.18" r="129.13">
	<stop stop-color="#D1D3D4" offset="0"/>
	<stop stop-color="#6D6E71" offset="1"/>
</radialGradient>
<circle cy="158.33" cx="145.84" r="84.489" fill="url(#SVGID_2_)"/>
<linearGradient id="SVGID_3_" y2="225.36" gradientUnits="userSpaceOnUse" x2="184.55" y1="91.3" x1="107.14">
	<stop stop-color="#8898A9" offset="0"/>
	<stop stop-color="#7A8CA0" offset=".0962"/>
	<stop stop-color="#5B748A" offset=".3639"/>
	<stop stop-color="#45647C" offset=".6124"/>
	<stop stop-color="#365C74" offset=".8321"/>
	<stop stop-color="#305972" offset="1"/>
</linearGradient>
<circle stroke="#BCBEC0" cx="145.84" r="77.39" cy="158.33" fill="url(#SVGID_3_)"/>
	<path d="m106.76 180.72c-0.793-0.515-1.609-1.393-2.301-2.53-0.681-1.135-1.215-2.531-1.217-4.049-0.004-1.143 0.323-2.354 1.113-3.447 0.837-1.152 2.146-2.32 3.535-3.257 1.404-0.923 2.801-1.64 4.15-1.67 0.035 0 0.09 0 0.138 0.004 1.465 0.077 3.046 0.745 4.349 1.885 1.291 1.135 2.299 2.813 2.298 4.854 0.001 2.073-1.042 4.365-3.464 6.694-1.207 1.151-3.06 2.479-5.379 2.496h-0.016c-1.03 0.02-2.14-0.28-3.2-0.96z" fill="#fff"/>
	<path d="m118.97 191.1c-2.045-0.016-3.99-1.104-5.482-2.596-1.479-1.502-2.553-3.448-2.566-5.478-0.004-1.086 0.344-2.2 1.119-3.116 1.928-2.274 4.808-4.52 6.999-5.307 0.664-0.229 1.405-0.319 2.184-0.322 2.054 0.029 4.384 0.593 5.771 2.073 1.024 1.168 2.273 3.059 2.299 5.251 0.008 1.082-0.361 2.241-1.232 3.206-2.156 2.405-4.12 4.299-6.753 5.712-0.739 0.397-1.54 0.576-2.33 0.576l-0.01 0.01z" fill="#fff"/>
	<path d="m124.14 195.38c-1.415-1.119-2.539-2.672-2.557-4.511-0.002-0.741 0.205-1.507 0.633-2.211v0.001c1.255-2.062 3.659-4.514 5.301-6.245 1.381-1.438 3.268-2.51 5.309-2.522 0.676 0 1.367 0.127 2.027 0.407 1.936 0.845 3.939 2.839 3.988 5.493 0.001 0.783-0.201 1.6-0.639 2.38-1.596 2.807-3.783 6.778-6.781 8.505-0.715 0.4-1.513 0.565-2.311 0.565-1.75-0.01-3.54-0.75-4.97-1.86z" fill="#fff"/>
	<path d="m130.98 198.33c-0.097-0.31-0.136-0.623-0.136-0.936 0.015-1.238 0.553-2.486 1.237-3.727 0.695-1.229 1.57-2.418 2.381-3.346 1.131-1.306 2.545-1.899 3.849-1.892 0.991 0 1.901 0.321 2.632 0.831 1.057 0.706 2.24 2.195 2.211 4.661-0.002 0.85-0.125 1.813-0.4 2.923 0.768 0.415 1.846 0.961 2.662 1.305l1.514 0.634-1.273 1.037c-1.564 1.268-4.197 3.106-7.613 3.116-0.371 0-0.748-0.023-1.133-0.069-1.865-0.229-3.201-0.741-4.158-1.575-0.96-0.82-1.43-1.88-1.77-2.95" fill="#fff"/>
	<line y1="197.4" x2="132.82" x1="132.82" y2="197.4" fill="#231F20"/>
	<path d="m157.52 199.34c-5.002-1.018-11.746-6.68-16.36-11.769-0.183-0.202-0.167-0.514 0.036-0.696 0.201-0.182 0.513-0.167 0.695 0.037 4.498 5.007 11.3 10.592 15.82 11.463 0.268 0.052 0.441 0.312 0.387 0.577-0.047 0.236-0.252 0.397-0.482 0.397-0.05-0.01-0.08-0.01-0.11-0.01z" fill="#fff"/>
	<path d="m169.54 195.14c-4.338-0.908-12.709-7.734-18.841-14.909-0.177-0.208-0.151-0.518 0.055-0.693 0.209-0.178 0.519-0.152 0.697 0.055 5.973 7.068 14.514 13.869 18.283 14.581v0.002c0.268 0.052 0.439 0.312 0.387 0.579-0.047 0.234-0.254 0.396-0.482 0.396-0.05-0.01-0.08-0.02-0.11-0.02z" fill="#fff"/>
	<path d="m179.83 188.71c-3.256-1.411-9.529-6.536-11.564-8.559-1.018-1.02-3.336-3.712-5.5-6.433-2.172-2.746-4.139-5.375-4.535-6.601-0.08-0.261 0.068-0.535 0.328-0.614s0.535 0.068 0.613 0.329c0.221 0.806 2.225 3.605 4.363 6.272 2.143 2.693 4.475 5.396 5.428 6.35 1.904 1.916 8.295 7.095 11.256 8.35 0.25 0.109 0.367 0.397 0.258 0.647-0.078 0.187-0.262 0.299-0.451 0.299-0.08 0-0.14-0.02-0.21-0.05z" fill="#fff"/>
	<path d="m185.54 179.32c-2.439-2.398-11.945-12.257-15.762-16.396-5.254-0.732-9.9-3.519-13.283-7.076-3.121-3.296-5.203-7.258-5.614-11.037-0.522 0.089-1.128 0.171-1.785 0.248-1.255 0.143-2.638 0.247-3.749 0.247-0.318-0.003-0.605-0.008-0.872-0.026-0.708 1.735-1.974 3.79-3.425 5.688-1.703 2.192-3.566 4.129-5.359 4.951-1.182 0.521-2.596 0.817-4.023 0.821-1.32-0.004-2.661-0.257-3.814-0.915-1.154-0.649-2.099-1.771-2.43-3.279l-0.024-0.106v-0.11c0.011-1.333 0.486-2.741 0.994-4.104 0.513-1.352 1.08-2.652 1.323-3.499 0.505-1.71 1.02-6.617 1.262-8.476 0.135-0.999 0.432-2.331 1.338-3.582 0.904-1.255 2.412-2.37 4.719-2.985 3.977-1.067 9.654-2.788 12.641-4.208 1.759-0.827 3.548-1.87 6.109-1.871 1.83 0 3.969 0.529 6.73 1.877 6.252 3.058 18.012 6.863 20.438 7.305l0.395 0.075 0.23 0.329c4.688 6.695 10.971 19.131 14.936 38.789l0.111 0.551-0.418 0.376c-1.787 1.596-7.287 5.35-9.502 6.576l-0.643 0.352-0.54-0.52z" fill="#fff"/>
	<path d="m168.13 162.58z" fill="#231F20"/>
	<path d="m196.44 171.63c0.377 1.607 1.184 6.101 0.035 6.306-1.15 0.205-2.9-3.22-2.49-3.959 0.41-0.74 2.45-2.35 2.45-2.35z" fill="#fff"/>
	<path d="m142.75 196.85c0.025 0.014 0.057 0.029 0.083 0.044-0.028-0.016-0.055-0.03-0.083-0.046v0.01zm45.73-17.24c-0.32-0.461-0.758-0.926-1.365-1.509-0.334 0.203-0.635 0.38-0.885 0.517-2.463-2.422-12.354-12.685-15.967-16.624-0.494-0.06-0.979-0.154-1.463-0.252 2.109 2.41 4.039 4.548 5.363 5.873 3.268 3.267 9.24 9.692 11.391 11.72 0.688 0.644 1.102 1.097 1.301 1.39 0.197 0.307 0.195 0.37 0.205 0.523 0.004 0.152-0.061 0.459-0.186 0.95-0.199 0.829-0.379 2.003-1.268 3.059-0.885 1.032-2.498 2.056-6.018 2.186l-0.867 0.029-0.08 0.863c-0.197 2.088-0.604 3.151-0.994 3.753-0.393 0.6-0.805 0.84-1.418 1.306-0.57 0.436-1.736 1.027-3.785 1.028-0.871 0-1.902-0.109-3.109-0.388l-0.832-0.191-0.309 0.796c-0.236 0.657-1.17 1.719-2.602 2.517-1.43 0.813-3.33 1.413-5.494 1.412-0.807 0-1.648-0.083-2.521-0.268l-0.635-0.133-0.373 0.528c-0.662 0.959-2.158 2.061-3.684 2.037-0.301-0.002-0.607-0.038-0.924-0.122-1.124-0.294-3.058-0.974-5.053-1.804l-1.247 1.016c-0.151 0.123-0.322 0.255-0.494 0.386 2.395 1.05 4.83 1.911 6.289 2.307 0.484 0.128 0.963 0.188 1.43 0.188 2.123-0.021 3.832-1.153 4.889-2.359 0.795 0.133 1.572 0.194 2.324 0.194 2.529-0.001 4.752-0.692 6.469-1.666 1.375-0.793 2.438-1.734 3.076-2.759 1.031 0.196 1.963 0.28 2.801 0.28 2.434 0.002 4.059-0.722 4.986-1.438 0.455-0.354 1.234-0.813 1.869-1.793 0.549-0.852 0.967-2.019 1.205-3.796 3.361-0.259 5.42-1.421 6.605-2.837 1.277-1.51 1.508-3.207 1.676-3.855 0.115-0.475 0.238-0.896 0.244-1.425 0-0.58-0.21-1.17-0.56-1.67zm-47.29-53.1c-4.22-0.227-8.74-0.392-11.621-0.474-5.768-0.15-13.951-0.036-18.718-1.904l-1.071-0.414-0.246 1.122c-2.801 12.795-8.808 26.791-13.601 37.107l-0.29 0.626 0.487 0.485c2.827 2.826 5.77 5.216 8.551 7.244 0.396-0.487 0.855-0.97 1.376-1.435-2.621-1.899-5.381-4.116-8.045-6.72 4.63-10.018 10.311-23.314 13.203-35.808 5.385 1.676 12.94 1.498 18.298 1.664 2.865 0.082 7.376 0.247 11.571 0.472 0.421 0.022 0.839 0.046 1.252 0.069 1.666-0.545 3.259-1.112 4.582-1.663-1.7-0.15-3.67-0.27-5.73-0.38z" fill="#fff"/>
	<path d="m76.171 161.95c-0.004 0.664-0.56 1.198-0.84 1.789 1.617 0.616 3.649 1.403 5.647 2.189 3.582 1.406 7.139 2.846 7.895 3.227 0.639 0.321 1.287 0.481 1.904 0.481h0.006c1.436-0.002 2.541-0.824 3.248-1.741l0.016-0.021 0.017-0.024c8.173-11.864 16.354-39.365 16.889-41.312 0.177-0.667 0.271-1.354 0.271-2.027-0.011-1.414-0.385-2.922-1.767-3.663-0.409-0.2-1.339-0.567-2.679-1.085-3.975-1.526-11.138-4.146-13.685-4.994 0.192 12.96-16.909 46.33-16.914 47.16z" fill="#fff"/>
	<path d="m196.6 124.76c7.777 6.613 18.148 36.326 19.754 52.949-1.811 0.752-3.727 1.434-5.338 1.68-0.998 0.148-2.191 0.217-3.439 0.217-1.605 0-3.299-0.117-4.768-0.367-1.475-0.271-2.691-0.576-3.561-1.328 1.148-0.205 0.42-4.828 0.043-6.436-3.965-19.658-10.248-32.094-14.936-38.789l-0.23-0.437c0.461-0.32 1.057-0.666 1.773-1.059 0.938-0.515 2.055-1.081 3.186-1.634 1.43-0.68 6.39-4.28 7.53-4.79z" fill="#fff"/>
<metadata><rdf:RDF><cc:Work><dc:format>image/svg+xml</dc:format><dc:type rdf:resource="http://purl.org/dc/dcmitype/StillImage"/><cc:license rdf:resource="http://creativecommons.org/licenses/publicdomain/"/><dc:publisher><cc:Agent rdf:about="http://openclipart.org/"><dc:title>Openclipart</dc:title></cc:Agent></dc:publisher><dc:title>Hand Shake Button</dc:title><dc:date>2013-08-07T21:13:14</dc:date><dc:description>A simple button with a handshake to indicate unity.</dc:description><dc:source>https://openclipart.org/detail/181657/hand-shake-button-by-bnsonger47-181657</dc:source><dc:creator><cc:Agent><dc:title>bnsonger47</dc:title></cc:Agent></dc:creator><dc:subject><rdf:Bag><rdf:li>button</rdf:li><rdf:li>hands</rdf:li><rdf:li>handshake</rdf:li><rdf:li>icon</rdf:li><rdf:li>shake</rdf:li></rdf:Bag></dc:subject></cc:Work><cc:License rdf:about="http://creativecommons.org/licenses/publicdomain/"><cc:permits rdf:resource="http://creativecommons.org/ns#Reproduction"/><cc:permits rdf:resource="http://creativecommons.org/ns#Distribution"/><cc:permits rdf:resource="http://creativecommons.org/ns#DerivativeWorks"/></cc:License></rdf:RDF></metadata></svg>