<?xml version="1.0" encoding="UTF-8"?>
<!-- Created with Inkscape (http://www.inkscape.org/) -->
<svg id="svg1" width="512" height="512" version="1.1" viewBox="0 0 512 512" xmlns="http://www.w3.org/2000/svg">
 <defs id="defs1">
  <linearGradient id="linearGradient28" x1="-2.4521" x2="768" y1="768" y2="768" gradientTransform="matrix(.20905 0 0 .20905 92.999 -23.945)" gradientUnits="userSpaceOnUse">
   <stop id="stop27" stop-opacity=".5" offset="0"/>
   <stop id="stop28" stop-opacity="0" offset=".3"/>
  </linearGradient>
  <linearGradient id="linearGradient30" x1="1537.8" x2="768" y1="753" y2="768" gradientTransform="matrix(.20905 0 0 .20905 92.999 -23.945)" gradientUnits="userSpaceOnUse">
   <stop id="stop29" stop-opacity=".5" offset="0"/>
   <stop id="stop30" stop-opacity="0" offset=".3"/>
  </linearGradient>
  <linearGradient id="linearGradient32" x1="1165.9" x2="768" y1="108.79" y2="768" gradientTransform="matrix(.20905 0 0 .20905 92.999 -23.945)" gradientUnits="userSpaceOnUse">
   <stop id="stop31" stop-opacity=".5" offset="0"/>
   <stop id="stop32" stop-opacity="0" offset=".3"/>
  </linearGradient>
  <linearGradient id="linearGradient34" x1="370.08" x2="768" y1="1427.2" y2="768" gradientTransform="matrix(.20905 0 0 .20905 92.999 -23.945)" gradientUnits="userSpaceOnUse">
   <stop id="stop33" stop-opacity=".5" offset="0"/>
   <stop id="stop34" stop-opacity="0" offset=".3"/>
  </linearGradient>
  <linearGradient id="linearGradient36" x1="383.03" x2="768" y1="109.06" y2="768" gradientTransform="matrix(.20905 0 0 .20905 92.999 -23.945)" gradientUnits="userSpaceOnUse">
   <stop id="stop35" stop-opacity=".5" offset="0"/>
   <stop id="stop36" stop-opacity="0" offset=".3"/>
  </linearGradient>
  <linearGradient id="linearGradient38" x1="1165.9" x2="768" y1="1427.1" y2="768" gradientTransform="matrix(.20905 0 0 .20905 92.999 -23.945)" gradientUnits="userSpaceOnUse">
   <stop id="stop37" stop-opacity=".5" offset="0"/>
   <stop id="stop38" stop-opacity="0" offset=".3"/>
  </linearGradient>
  <linearGradient id="linearGradient43" x1="-2.4521" x2="768" y1="768" y2="768" gradientTransform="matrix(.25959 0 0 .25959 54.185 -62.759)" gradientUnits="userSpaceOnUse">
   <stop id="stop59" stop-opacity=".5" offset="0"/>
   <stop id="stop60" stop-opacity="0" offset=".3"/>
  </linearGradient>
  <linearGradient id="linearGradient44" x1="383.03" x2="768" y1="109.06" y2="768" gradientTransform="matrix(.25959 0 0 .25959 54.185 -62.759)" gradientUnits="userSpaceOnUse">
   <stop id="stop61" stop-opacity=".5" offset="0"/>
   <stop id="stop62" stop-opacity="0" offset=".3"/>
  </linearGradient>
  <linearGradient id="linearGradient45" x1="370.08" x2="768" y1="1427.2" y2="768" gradientTransform="matrix(.25959 0 0 .25959 54.185 -62.759)" gradientUnits="userSpaceOnUse">
   <stop id="stop57" stop-opacity=".5" offset="0"/>
   <stop id="stop58" stop-opacity="0" offset=".3"/>
  </linearGradient>
  <linearGradient id="linearGradient46" x1="1165.9" x2="768" y1="108.79" y2="768" gradientTransform="matrix(.25959 0 0 .25959 54.185 -62.759)" gradientUnits="userSpaceOnUse">
   <stop id="stop51" stop-opacity=".5" offset="0"/>
   <stop id="stop52" stop-opacity="0" offset=".3"/>
  </linearGradient>
  <linearGradient id="linearGradient47" x1="1165.9" x2="768" y1="1427.1" y2="768" gradientTransform="matrix(.25959 0 0 .25959 54.185 -62.759)" gradientUnits="userSpaceOnUse">
   <stop id="stop55" stop-opacity=".5" offset="0"/>
   <stop id="stop56" stop-opacity="0" offset=".15"/>
  </linearGradient>
  <linearGradient id="linearGradient48" x1="1537.8" x2="768" y1="753" y2="768" gradientTransform="matrix(.25959 0 0 .25959 54.185 -62.759)" gradientUnits="userSpaceOnUse">
   <stop id="stop53" stop-opacity=".5" offset="0"/>
   <stop id="stop54" stop-opacity="0" offset=".3"/>
  </linearGradient>
  <linearGradient id="linearGradient89" x1="1126.4" x2="1157" y1="1492.7" y2="1545.7" gradientTransform="matrix(.25959 0 0 .25959 54.185 -62.759)" gradientUnits="userSpaceOnUse">
   <stop id="stop88" stop-opacity=".5" offset="0"/>
   <stop id="stop89" stop-color="#e7f12a" stop-opacity="0" offset="1"/>
  </linearGradient>
  <linearGradient id="linearGradient91" x1="1349.7" x2="1270.5" y1="1490.9" y2="1618.2" gradientTransform="matrix(.25959 0 0 .25959 54.185 -62.759)" gradientUnits="userSpaceOnUse">
   <stop id="stop90" stop-opacity=".5" offset="0"/>
   <stop id="stop91" stop-color="#e7af19" stop-opacity="0" offset="1"/>
  </linearGradient>
  <linearGradient id="linearGradient93" x1="1128.9" x2="1206.5" y1="1707.2" y2="1588.3" gradientTransform="matrix(.25959 0 0 .25959 54.185 -62.759)" gradientUnits="userSpaceOnUse">
   <stop id="stop92" stop-opacity=".5" offset="0"/>
   <stop id="stop93" stop-color="#ee9b16" stop-opacity="0" offset="1"/>
  </linearGradient>
  <linearGradient id="linearGradient95" x1="1385.2" x2="1323.2" y1="1686.4" y2="1649.9" gradientTransform="matrix(.25959 0 0 .25959 54.185 -62.759)" gradientUnits="userSpaceOnUse">
   <stop id="stop94" stop-opacity=".25" offset="0"/>
   <stop id="stop95" stop-opacity="0" offset="1"/>
  </linearGradient>
 </defs>
 <g id="g1" transform="translate(2.452 95.471)">
  <path id="path11" d="m314.43 287.15c-29.492 16.514-55.695 29.962-60.878 29.963v43.485c7.6442 6e-5 52.075-23.494 96.511-49.043l-35.633-24.4z" fill="#53380d"/>
  <path id="path107" d="m157.01 311.6c44.452 25.557 88.891 48.993 96.538 48.994v-43.485c-5.1874 0-31.392-13.418-60.904-29.935l-2e-3 0.026z" fill="#ea510b"/>
  <path id="path161" d="m176.42 277.99c-1.3e-4 -8e-5 -2.6e-4 8e-5 -5.2e-4 0l-19.407 33.615z"/>
  <path id="path78" d="m53.779 140.5h-0.03498c0.09017 51.289 1.9966 101.48 5.821 108.1l37.659-21.743c-2.5912-4.488-4.0472-33.906-4.4921-67.705l-0.0071 4e-3z"/>
  <path id="path136" d="m97.224 226.86-37.659 21.743c3.8227 6.621 46.333 33.409 90.688 59.127l3.3143-43.058 0.0289-0.0197c-29.044-17.298-53.782-33.305-56.373-37.792z" fill="#b11e4e"/>
  <path id="path35" d="m150.29-34.449c-44.343 25.708-86.902 52.437-90.724 59.057h5.19e-4l37.658 21.743c2.5933-4.4891 27.343-20.458 56.391-37.743l-0.0122-0.0081z" fill="#cd2ed6"/>
  <path id="path84" d="m59.564 24.608c-3.8212 6.6201-5.7461 56.85-5.8422 108.1h0.15312l1.3547-0.64897h-1.2275l38.687-18.535c0.46749-33.571 1.9565-62.713 4.5332-67.176l5.19e-4 -5.19e-4z" fill="#d02ed2"/>
  <path id="path9" d="m414.4 159.15c-0.45163 33.814-1.9337 63.213-4.5271 67.706l37.66 21.743c3.8244-6.624 5.7296-56.812 5.82-108.1l-38.943 18.657z" fill="#215b19"/>
  <path id="path155" d="m356.83 307.71-19.401-33.602 19.4 33.603c1.8e-4 -1.3e-4 0 0 0 0z"/>
  <path id="path154" d="m409.87 226.86c-2.5904 4.4867-27.325 20.491-56.365 37.787l0.0117 8e-3 3.3148 43.058c44.337-25.709 86.875-52.491 90.698-59.11z" fill="#225b17"/>
  <path id="path129" d="m356.84-34.519-0.0101 0.01776-3.3143 43.058-0.0117 0.0081c29.04 17.296 53.774 33.301 56.365 37.787l37.66-21.743v-5.19e-4c-3.8227-6.6211-46.333-33.409-90.688-59.127z" fill="#3063e7"/>
  <path id="path150" d="m447.53 24.608-37.66 21.743c2.5904 4.4867 4.0837 33.909 4.5428 67.706l0.0127-6e-3 38.947 18.658c-0.096-51.252-2.0215-101.48-5.8428-108.1z" fill="#1b405b"/>
  <path id="path147" d="m253.55-87.388v43.486c5.1875-3e-5 31.397 13.42 60.913 29.941l4e-3 -0.05222 35.612-24.385c-44.45-25.555-88.884-48.989-96.53-48.989z" fill="#6e33df"/>
  <path id="path121" d="m253.55-87.388c-7.6426-6e-6 -52.106 23.448-96.541 48.991l35.632 24.399 1e-3 0.0142c29.499-16.501 55.727-29.919 60.907-29.919z" fill="#7233db"/>
  <path id="path159" d="m195.81 244.39-19.407 33.613c2.6e-4 2.1e-4 7.8e-4 0 1e-3 0l19.402-33.604-3.1678 42.796c29.507 16.508 55.721 29.918 60.905 29.918v-43.485h-5.2e-4c-4.6051 0-30.974-13.889-57.733-29.237z" fill="#a43a07"/>
  <path id="path118" d="m311.26 244.36c-26.733 15.331-53.109 29.267-57.711 29.268v43.485c5.1821 0 31.385-13.448 60.878-29.962z" fill="#f4730e"/>
  <path id="path80" d="m92.696 159.14c0.45166 33.819 1.9346 63.223 4.5281 67.715l37.659-21.742c-2.3005-3.9846-3.4197-33.797-3.509-64.615l-38.65 18.656z" fill="#57162c"/>
  <path id="path135" d="m134.88 205.12-37.659 21.742c2.5917 4.489 27.309 20.499 56.355 37.804l35.474-24.139 9e-3 -0.0158c-26.636-15.487-51.88-31.409-54.18-35.392z" fill="#991d37"/>
  <path id="path36" d="m153.61 8.6076c-29.05 17.285-53.8 33.255-56.391 37.743l37.66 21.743c2.3006-3.9846 27.561-19.86 54.206-35.347z" fill="#39236b"/>
  <path id="path138" d="m97.223 46.351c-2.5767 4.4629-4.0657 33.605-4.5332 67.176l0.25908-0.12421 38.38 18.527c0.11176-30.53 1.2738-59.888 3.5536-63.836z" fill="#38235e"/>
  <path id="path12" d="m375.76 140.5c-0.0874 30.847-1.244 60.628-3.5465 64.616l37.66 21.742c2.5932-4.4917 4.0755-33.89 4.5271-67.705z" fill="#52db15"/>
  <path id="path111" d="m337.43 274.11-19.4-33.602 19.401 33.602c1.3e-4 -8e-5 0 8e-5 0 0z"/>
  <path id="path156" d="m372.21 205.12c-2.2994 3.9826-27.543 19.904-54.179 35.391l35.474 24.139c29.039-17.296 53.773-33.3 56.364-37.787z" fill="#68ed16"/>
  <path id="path46" d="m353.51 8.563-35.476 24.14-6e-3 0.01116c26.671 15.5 51.885 31.391 54.187 35.379l37.658-21.743c-2.5932-4.4902-27.314-20.488-56.364-37.788z" fill="#274aaa"/>
  <path id="path115" d="m414.57 132.71h-38.801v1e-3l38.801-5.3e-4v-5.2e-4z"/>
  <path id="path151" d="m409.87 46.351-37.659 21.743c2.2993 3.9826 3.4652 33.806 3.5597 64.617l38.642-18.652c-0.459-33.797-1.9516-63.22-4.5418-67.706z" fill="#2d53dc"/>
  <path id="path146" d="m253.55-43.903v43.486c4.5988 2.596e-5 31.009 13.902 57.74 29.225l9e-3 -0.01622 3.1673-42.79c-29.509-16.503-55.733-29.904-60.916-29.904z" fill="#5229ad"/>
  <path id="path122" d="m253.55-43.903c-5.1817 8e-6 -31.409 13.418-60.907 29.92l3.1673 42.791c26.731-15.324 53.141-29.225 57.74-29.225z" fill="#392562"/>
  <path id="path119" d="m157.01-38.397 35.632 24.4 3.1683 42.805z" fill="#8831db"/>
  <path id="path123" d="m356.83-34.502-3.3144 43.058-35.486 24.146z" fill="#575de5"/>
  <path id="path124" d="m453.35 140.5-38.947 18.659-38.655-18.659z" fill="#56d24f"/>
  <path id="path125" d="m350.06 311.55-35.632-24.4-3.1683-42.805z" fill="#46370e"/>
  <path id="path126" d="m150.25 307.73 3.3144-43.058 35.486-24.146z" fill="#4a1a28"/>
  <path id="path127" d="m54.002 132.06 38.947-18.659 38.655 18.659z" fill="#392252"/>
  <path id="path141" d="m150.29-34.459 3.3144 43.058 35.486 24.146z" fill="#342256"/>
  <path id="path144" d="m350.1-38.413-35.632 24.4-3.1684 42.805z" fill="#2a264f"/>
  <path id="path148" d="m453.37 132.71-38.947-18.659-38.655 18.659z" fill="#225671"/>
  <path id="path152" d="m356.83 307.71-3.3145-43.058-35.486-24.146z" fill="#82ac46"/>
  <path id="path157" d="m157.01 311.6 35.632-24.4 3.1683-42.805z" fill="#ed482c"/>
  <path id="path162" d="m53.778 140.5 38.947 18.659 38.655-18.659z" fill="#ed5ba1"/>
  <path id="path3" d="m53.779 140.5h-0.03498c0.09017 51.289 1.9966 101.48 5.821 108.1l37.659-21.743c-2.5912-4.488-4.0472-33.906-4.4921-67.705l-0.0071 4e-3z" fill="#ed3697"/>
  <path id="path10" d="m354.54 338.46-0.0132 0.0171-50.891 11.063c3.8221 6.6201 46.384 33.351 90.727 59.06l3.3148-43.059 4e-3 -3e-3c-17.15-10.204-32.665-19.883-43.142-27.079z" fill="#ee9b16"/>
  <path id="path5" d="m378.95 306.06-37.659 21.743c1.0613 1.8382 5.9758 5.6694 13.245 10.661zm-24.414 32.404c-7.2688-4.9919-12.184-8.823-13.246-10.661l-37.658 21.742 50.891-11.063z" fill="#e7f12a"/>
  <path id="path8" d="m378.95 306.06-24.414 32.404c10.477 7.1954 25.992 16.874 43.142 27.079l35.474-24.138c-26.643-15.486-51.901-31.36-54.202-35.345z" fill="#e7af19"/>
  <path id="path83" d="m97.224 46.351c-2.5934 4.492-4.104 33.949-4.5681 67.781l0.16072-0.0771 38.655 18.658 0.0507 7.7876-38.642 18.653-0.22511-0.10748c0.46372 33.845 1.9746 63.318 4.5686 67.811l156.32-90.253z" fill="url(#linearGradient28)"/>
  <path id="path65" d="m253.55-43.903c-5.1838 5.19e-4 -31.415 13.401-60.919 29.898l0.0112 0.0076 3.1683 42.806-6.7189 3.9379-35.475-24.139-7e-3 -0.08467c-29.053 17.311-53.79 33.337-56.383 37.827v5.2e-4l156.32 90.253z" fill="url(#linearGradient36)"/>
  <path id="path79" d="m253.55 136.6-156.32 90.253c2.5916 4.4888 27.313 20.506 56.354 37.81l35.463-24.131 6.7701 3.8492-3.1673 42.791-0.036 0.0249c29.514 16.503 55.755 29.909 60.94 29.909z" fill="url(#linearGradient34)"/>
  <path id="path68" d="m253.55-43.903v180.51l156.32-90.253c-2.5898-4.4857-27.279-20.483-56.293-37.774l-0.0294 0.37924-35.486 24.146-6.7696-3.8492 3.1673-42.791 0.37874-0.25959c-29.657-16.593-56.086-30.106-61.291-30.106z" fill="url(#linearGradient32)"/>
  <path id="path75" d="m253.55 136.6v180.51c5.1841 0 31.424-13.406 60.936-29.908l-3.1642-42.75 6.7188-3.9379 35.475 24.138v0.0158c29.042-17.305 53.765-33.323 56.357-37.812z" fill="url(#linearGradient38)"/>
  <path id="path72" d="m409.87 46.351-156.32 90.253 156.32 90.253c2.5916-4.4889 4.1018-33.908 4.5671-67.71l-38.641-18.652-0.0507-7.7876 38.642-18.653 0.0502 0.0243c-0.4651-33.81-1.9752-63.239-4.5671-67.729z" fill="url(#linearGradient30)"/>
  <path id="path6" d="m394.36 408.6 3.3144-43.058 35.486-24.146z" fill="#524111"/>
  <path id="path82" d="m59.432 24.531c-7.845 13.588-7.8444 210.56 0 224.15l194.12-112.07zm33.385 89.524 38.655 18.658 0.0507 7.7876-38.642 18.653-38.951-18.648-0.05983-7.7922z" fill="url(#linearGradient43)"/>
  <path id="path63" d="m253.55-87.542c-15.692 0.00158-186.27 98.484-194.12 112.07v5.19e-4l194.12 112.07zm-96.541 49.146 35.632 24.399 3.1683 42.806-6.7189 3.9379-35.475-24.139-3.3255-43.057z" fill="url(#linearGradient44)"/>
  <path id="path77" d="m253.55 136.6-194.12 112.07c7.8451 13.588 178.43 112.07 194.12 112.07zm-64.507 103.93 6.7701 3.8492-3.1673 42.791-35.625 24.408-6.7777-3.8446 3.3143-43.058z" fill="url(#linearGradient45)"/>
  <path id="path67" d="m253.55-87.542v224.15l194.12-112.07c-7.8451-13.588-178.43-112.07-194.12-112.07zm96.537 49.596 6.7777 3.8446-3.3143 43.058-35.486 24.146-6.7696-3.8492 3.1673-42.791z" fill="url(#linearGradient46)"/>
  <path id="path74" d="m253.55 136.6v224.15c15.69 0 186.27-98.485 194.12-112.07zm64.491 103.91 35.475 24.138 3.3254 43.057-6.7184 3.9476-35.632-24.399-3.1683-42.805z" fill="url(#linearGradient47)"/>
  <path id="path71" d="m447.66 24.531-194.12 112.07 194.12 112.07c7.8451-13.588 7.8445-210.56 0-224.15zm-33.276 89.524 38.951 18.648 0.0593 7.7922-38.946 18.658-38.655-18.658-0.0507-7.7876z" fill="url(#linearGradient48)"/>
  <path id="path85" d="m354.54 338.46-0.0132 0.0171-50.891 11.063c3.8221 6.6201 46.384 33.351 90.727 59.06l3.3148-43.059 4e-3 -3e-3c-17.15-10.204-32.665-19.883-43.142-27.079z" fill="url(#linearGradient93)"/>
  <path id="path86" d="m378.95 306.06-37.659 21.743c1.0613 1.8382 5.9758 5.6694 13.245 10.661zm-24.414 32.404c-7.2688-4.9919-12.184-8.823-13.246-10.661l-37.658 21.742 50.891-11.063z" fill="url(#linearGradient89)"/>
  <path id="path87" d="m378.95 306.06-24.414 32.404c10.477 7.1954 25.992 16.874 43.142 27.079l35.474-24.138c-26.643-15.486-51.901-31.36-54.202-35.345z" fill="url(#linearGradient91)"/>
  <path id="path88" d="m394.36 408.6 3.3144-43.058 35.486-24.146z" fill="url(#linearGradient95)"/>
 </g>
</svg>
